<?xml version="1.0" encoding="UTF-8" standalone="no" ?>
<!DOCTYPE svg PUBLIC "-//W3C//DTD SVG 1.1//EN" "http://www.w3.org/Graphics/SVG/1.1/DTD/svg11.dtd">
<svg xmlns="http://www.w3.org/2000/svg" xmlns:xlink="http://www.w3.org/1999/xlink" version="1.1" width="1080" height="1080" viewBox="-33.45 35.83 1080 1080" xml:space="preserve">
<desc>Created with Fabric.js 5.2.4</desc>
<defs>
</defs>
<g transform="matrix(1 0 0 1 540 540)" id="0dc6d7a2-7cfe-44f2-addd-a3ade64f1bc4"  >
<rect style="stroke: none; stroke-width: 1; stroke-dasharray: none; stroke-linecap: butt; stroke-dashoffset: 0; stroke-linejoin: miter; stroke-miterlimit: 4; fill: rgb(255,255,255); fill-rule: nonzero; opacity: 1; visibility: hidden;" vector-effect="non-scaling-stroke"  x="-540" y="-540" rx="0" ry="0" width="1080" height="1080" />
</g>
<g transform="matrix(1 0 0 1 540 540)" id="97b2ee28-00a0-43f1-9a9c-38f5f846faf9"  >
</g>
<g transform="matrix(1 0 0 1 920.94 501.42)"  >
<circle style="stroke: rgb(193,193,193); stroke-width: 1; stroke-dasharray: 12.278 12.278; stroke-linecap: butt; stroke-dashoffset: 0; stroke-linejoin: miter; stroke-miterlimit: 10; fill: none; fill-rule: nonzero; opacity: 1;" vector-effect="non-scaling-stroke"  cx="0" cy="0" r="70.35" />
</g>
<g transform="matrix(1 0 0 1 482.64 453.93)"  >
<path style="stroke: none; stroke-width: 1; stroke-dasharray: none; stroke-linecap: butt; stroke-dashoffset: 0; stroke-linejoin: miter; stroke-miterlimit: 4; fill: rgb(212,212,216); fill-rule: nonzero; opacity: 1;" vector-effect="non-scaling-stroke"  transform=" translate(-540, -473.38)" d="M 810.51 256.29 C 839.34 266.06 868 277.98 888.17 296.70000000000005 C 908.3399999999999 315.4200000000001 918.4399999999999 342.33000000000004 906.3399999999999 364.85 C 890.18 394.93 838.9799999999999 412.42 838.7399999999999 445.01 C 838.5699999999999 468.34999999999997 866.3499999999999 486.15999999999997 894.3999999999999 494.65 C 922.4399999999998 503.13 953.4899999999999 506.19 978.9999999999999 518.59 C 1017.4899999999999 537.3000000000001 1035.54 573.52 1042.9299999999998 608.27 C 1050.6 644.35 1047.4899999999998 685.43 1014.5599999999998 711.61 C 973.6299999999999 744.15 905.9299999999998 740.48 847.9799999999998 733.54 C 770.6499999999997 724.28 693.6599999999999 713.4 616.6899999999998 702.53 C 447.9499999999998 678.6899999999999 279.2099999999998 654.8399999999999 110.4699999999998 631 C 92.3799999999998 628.44 73.5499999999998 625.65 58.8499999999998 617.08 C 29.6599999999998 600.07 27.1799999999998 564.95 44.14999999999981 539.88 C 61.119999999999806 514.81 92.5099999999998 497.78 123.68999999999981 483.03 C 154.8699999999998 468.28999999999996 187.7899999999998 454.34999999999997 211.1499999999998 432.58 C 234.4999999999998 410.81 246.1199999999998 378.59 228.44999999999982 353.81 C 213.47999999999982 332.82 181.30999999999983 321.6 167.28999999999982 300.22 C 148.80999999999983 272.05 170.06999999999982 236.07000000000002 203.59999999999982 218.09000000000003 C 237.12999999999982 200.11000000000004 658.1899999999998 204.65000000000003 810.5099999999998 256.29 z" stroke-linecap="round" />
</g>
<g transform="matrix(1 0 0 1 774.83 589.57)"  >
<path style="stroke: none; stroke-width: 1; stroke-dasharray: none; stroke-linecap: butt; stroke-dashoffset: 0; stroke-linejoin: miter; stroke-miterlimit: 4; fill: rgb(255,190,85); fill-rule: nonzero; opacity: 1;" vector-effect="non-scaling-stroke"  transform=" translate(-829.36, -608.9)" d="M 876.9 569.68 L 864.15 572.2199999999999 L 862.3199999999999 563.05 C 861.0799999999999 556.81 855.3 552.6899999999999 849.4499999999999 553.8499999999999 L 786.5999999999999 566.3899999999999 C 780.7499999999999 567.5599999999998 776.9899999999999 573.5799999999999 778.2399999999999 579.8199999999998 L 780.0699999999999 588.9899999999998 L 767.3199999999999 591.5299999999997 C 765.8699999999999 591.8199999999997 764.9399999999999 593.3199999999997 765.2399999999999 594.8599999999998 L 778.5899999999999 661.8099999999998 C 778.8999999999999 663.3499999999998 780.3399999999999 664.3799999999999 781.79 664.0899999999998 L 891.39 642.2299999999998 C 892.84 641.9399999999998 893.77 640.4399999999998 893.47 638.8999999999997 L 880.12 571.9499999999997 C 879.79 570.4199999999997 878.35 569.3899999999998 876.9 569.6799999999997 z M 861.11 572.8299999999999 L 783.09 588.3899999999999 L 781.26 579.2199999999999 C 780.37 574.7599999999999 783.05 570.4599999999999 787.23 569.6299999999999 L 850.08 557.0899999999999 C 854.26 556.2599999999999 858.39 559.1999999999999 859.2800000000001 563.66 L 861.1100000000001 572.8299999999999 z" stroke-linecap="round" />
</g>
<g transform="matrix(1 0 0 1 767.98 576.83)"  >
<path style="stroke: none; stroke-width: 1; stroke-dasharray: none; stroke-linecap: butt; stroke-dashoffset: 0; stroke-linejoin: miter; stroke-miterlimit: 4; fill: rgb(255,255,255); fill-rule: nonzero; opacity: 1;" vector-effect="non-scaling-stroke"  transform=" translate(-823.12, -596.16)" d="M 835.12 613.71 L 822.03 616.32 L 766.52 598.9300000000001 L 766.89 598.4000000000001 L 822.17 615.7200000000001 L 834.76 613.2100000000002 L 879.17 576 L 879.7099999999999 576.35 z" stroke-linecap="round" />
</g>
<g transform="matrix(1 0 0 1 614.06 499.61)"  >
<path style="stroke: none; stroke-width: 1; stroke-dasharray: none; stroke-linecap: butt; stroke-dashoffset: 0; stroke-linejoin: miter; stroke-miterlimit: 4; fill: rgb(252,210,177); fill-rule: nonzero; opacity: 1;" vector-effect="non-scaling-stroke"  transform=" translate(-669.2, -518.94)" d="M 535.07 464.76 C 535.07 464.76 523.0200000000001 460.78999999999996 520.6500000000001 462.18 C 518.2800000000001 463.57000000000005 506.0400000000001 480.03000000000003 506.0400000000001 480.03000000000003 L 522.4300000000001 487.85 L 540.99 475.81 L 535.07 464.76 z M 824.31 544.99 C 824.31 544.99 834.13 564.89 832.0699999999999 568.44 C 830 572 807.77 576 807.77 576 L 801.8199999999999 556.04 L 812.43 544.98 L 824.31 544.98 z" stroke-linecap="round" />
</g>
<g transform="matrix(1 0 0 1 644.61 853.51)"  >
<path style="stroke: none; stroke-width: 1; stroke-dasharray: none; stroke-linecap: butt; stroke-dashoffset: 0; stroke-linejoin: miter; stroke-miterlimit: 4; fill: rgb(10,57,81); fill-rule: nonzero; opacity: 1;" vector-effect="non-scaling-stroke"  transform=" translate(-699.74, -872.83)" d="M 653.83 864.43 L 602.02 881.2399999999999 L 665.09 881.2399999999999 L 665.09 864.43 z M 782.24 864.43 L 734.92 881.2399999999999 L 797.4599999999999 881.2399999999999 L 794.2499999999999 864.43 z" stroke-linecap="round" />
</g>
<g transform="matrix(1 0 0 1 636.09 674.02)"  >
<path style="stroke: none; stroke-width: 1; stroke-dasharray: none; stroke-linecap: butt; stroke-dashoffset: 0; stroke-linejoin: miter; stroke-miterlimit: 4; fill: rgb(9,9,11); fill-rule: nonzero; opacity: 1;" vector-effect="non-scaling-stroke"  transform=" translate(-691.22, -693.35)" d="M 680.22 519.97 L 647.52 872.09 L 668.61 872.09 C 668.61 872.09 718.75 725.9300000000001 702.02 706.59 C 707.4 682.64 741.65 587.76 733.74 577.63 C 725.83 567.5 711.33 514.61 711.33 514.61 L 680.22 519.97 z" stroke-linecap="round" />
</g>
<g transform="matrix(1 0 0 1 687.6 672.4)"  >
<path style="stroke: none; stroke-width: 1; stroke-dasharray: none; stroke-linecap: butt; stroke-dashoffset: 0; stroke-linejoin: miter; stroke-miterlimit: 4; fill: rgb(24,24,27); fill-rule: nonzero; opacity: 1;" vector-effect="non-scaling-stroke"  transform=" translate(-742.74, -691.73)" d="M 688.02 529.46 L 705.02 552.87 L 775.12 872.09 L 797.39 872.09 C 797.39 872.09 799.24 711.95 783.28 691.73 C 776.9 655.5500000000001 773.88 532.48 769.17 518.99 C 747.89 517.9300000000001 692.02 511.37 692.02 511.37 L 688.02 529.46 z" stroke-linecap="round" />
</g>
<g transform="matrix(1 0 0 1 630.74 422.62)"  >
<path style="stroke: none; stroke-width: 1; stroke-dasharray: none; stroke-linecap: butt; stroke-dashoffset: 0; stroke-linejoin: miter; stroke-miterlimit: 4; fill: rgb(255,255,255); fill-rule: nonzero; opacity: 1;" vector-effect="non-scaling-stroke"  transform=" translate(-685.87, -441.95)" d="M 806.87 357 C 796.01 339.94 764.54 341.51 740.5 339.25 C 733.54 338.6 727.73 335.67 722.79 335 L 690.06 344.86 C 688.18 345.26 661.88 347.19 658.8699999999999 349 C 658.5099999999999 349.42 630.0199999999999 449.65999999999997 534.8699999999999 463 C 535.8699999999999 470 534.8699999999999 480 534.8699999999999 480 C 534.8699999999999 480 632.8599999999999 482.84 663.6599999999999 425.44 C 670.4199999999998 488.31 680.2199999999998 519.97 680.2199999999998 519.97 L 770.2199999999998 523.9300000000001 C 770.2199999999998 523.9300000000001 774.8599999999998 428.01000000000005 784.8599999999998 406.01000000000005 C 836.8599999999998 439.01000000000005 807.8599999999998 548.01 807.8599999999998 548.01 C 807.8599999999998 548.01 811.8599999999998 550.01 824.8599999999998 548.01 C 854.87 472 820.87 379 806.87 357 z" stroke-linecap="round" />
</g>
<g transform="matrix(1 0 0 1 655.75 331.28)"  >
<path style="stroke: none; stroke-width: 1; stroke-dasharray: none; stroke-linecap: butt; stroke-dashoffset: 0; stroke-linejoin: miter; stroke-miterlimit: 4; fill: rgb(242,242,242); fill-rule: nonzero; opacity: 1;" vector-effect="non-scaling-stroke"  transform=" translate(-710.88, -350.61)" d="M 702.02 354.25 L 712.5 369.21 L 733.74 336.88 L 726.02 332 z M 702.02 354.25 L 698.76 369.21 L 688.02 346.22999999999996 L 692.02 339.24999999999994 z" stroke-linecap="round" />
</g>
<g transform="matrix(1 0 0 1 650.6 427.79)"  >
<path style="stroke: none; stroke-width: 1; stroke-dasharray: none; stroke-linecap: butt; stroke-dashoffset: 0; stroke-linejoin: miter; stroke-miterlimit: 4; fill: rgb(255,190,85); fill-rule: nonzero; opacity: 1;" vector-effect="non-scaling-stroke"  transform=" translate(-705.74, -447.12)" d="M 699.83 365.39 L 702.0200000000001 372.15999999999997 L 691.4100000000001 489.21 C 691.4100000000001 489.21 704.96 543.15 705.8700000000001 539.85 C 706.7800000000001 536.5500000000001 720.0600000000002 493.58000000000004 720.0600000000002 493.58000000000004 L 707.9700000000001 372.33000000000004 L 709.0300000000001 365.32000000000005 L 702.0300000000001 354.24000000000007 L 699.83 365.39000000000004 z" stroke-linecap="round" />
</g>
<g transform="matrix(1 0 0 1 659.4 258.99)"  >
<path style="stroke: none; stroke-width: 1; stroke-dasharray: none; stroke-linecap: butt; stroke-dashoffset: 0; stroke-linejoin: miter; stroke-miterlimit: 4; fill: rgb(9,9,11); fill-rule: nonzero; opacity: 1;" vector-effect="non-scaling-stroke"  transform=" translate(-714.53, -278.32)" d="M 726.06 246.32 C 737.06 255.32 742.06 276.32 737.06 287.32 C 732.06 298.32 719.06 304.32 714.06 310.32 C 704.06 298.32 690.06 290.32 690.06 290.32 L 697.06 260.32 L 711.06 253.32 L 726.06 246.32 z" stroke-linecap="round" />
</g>
<g transform="matrix(1 0 0 1 653.93 303.42)"  >
<path style="stroke: none; stroke-width: 1; stroke-dasharray: none; stroke-linecap: butt; stroke-dashoffset: 0; stroke-linejoin: miter; stroke-miterlimit: 4; fill: rgb(252,210,177); fill-rule: nonzero; opacity: 1;" vector-effect="non-scaling-stroke"  transform=" translate(-709.06, -322.75)" d="M 692.06 315.9 L 692.06 341.9 L 702.06 356.9 L 726.06 334.65 L 716.56 288.59999999999997 z" stroke-linecap="round" />
</g>
<g transform="matrix(1 0 0 1 635.21 270.77)"  >
<path style="stroke: none; stroke-width: 1; stroke-dasharray: none; stroke-linecap: butt; stroke-dashoffset: 0; stroke-linejoin: miter; stroke-miterlimit: 4; fill: rgb(255,227,202); fill-rule: nonzero; opacity: 1;" vector-effect="non-scaling-stroke"  transform=" translate(-690.35, -290.1)" d="M 661.35 254.99 C 664.15 286.1 649.27 316.23 666.02 325.71000000000004 C 669.76 330.42 707.4 335.61 712.0699999999999 321.47 C 716.7399999999999 307.33000000000004 728.64 267.25 719.29 254.99 C 709.9499999999999 242.73000000000002 661.3499999999999 254.99 661.3499999999999 254.99 z" stroke-linecap="round" />
</g>
<g transform="matrix(1 0 0 1 660.07 261.22)"  >
<path style="stroke: none; stroke-width: 1; stroke-dasharray: none; stroke-linecap: butt; stroke-dashoffset: 0; stroke-linejoin: miter; stroke-miterlimit: 4; fill: rgb(9,9,11); fill-rule: nonzero; opacity: 1;" vector-effect="non-scaling-stroke"  transform=" translate(-715.2, -280.54)" d="M 705.06 258.32 C 703.06 266.32 705.06 281.32 713.06 283.32 C 713.06 287.14 712.65 293.81 712.3599999999999 298.14 C 712.2823176394971 299.2861745219265 712.6669360545528 300.4157136170511 713.4279413806195 301.27630729443024 C 714.1889467066861 302.1369009718094 715.2629332387219 302.65684598969176 716.4099999999999 302.71999999999997 C 718.2899999999998 302.82 720.0599999999998 302.79999999999995 720.0599999999998 302.32 C 720.0599999999998 301.32 726.0599999999998 258.32 726.0599999999998 258.32 L 705.0599999999998 258.32 z" stroke-linecap="round" />
</g>
<g transform="matrix(0.26 -0.97 0.97 0.26 666.17 270.27)"  >
<ellipse style="stroke: none; stroke-width: 1; stroke-dasharray: none; stroke-linecap: butt; stroke-dashoffset: 0; stroke-linejoin: miter; stroke-miterlimit: 4; fill: rgb(255,227,202); fill-rule: nonzero; opacity: 1;" vector-effect="non-scaling-stroke"  cx="0" cy="0" rx="11" ry="6.67" />
</g>
<g transform="matrix(1 0 0 1 627.71 240.93)"  >
<path style="stroke: none; stroke-width: 1; stroke-dasharray: none; stroke-linecap: butt; stroke-dashoffset: 0; stroke-linejoin: miter; stroke-miterlimit: 4; fill: rgb(9,9,11); fill-rule: nonzero; opacity: 1;" vector-effect="non-scaling-stroke"  transform=" translate(-687.19, -261.03)" d="M 714.06 282.32 L 713.06 300.32 L 718.06 301.32 L 720.06 276.32 z M 726.42 260.22 C 709.8317386109444 264.2275488255458 692.904384097884 266.67156955231286 675.8599999999999 267.52000000000004 C 667.0699999999999 267.96000000000004 657.3 267.62000000000006 650.8799999999999 261.6 C 645.5899999999999 256.64000000000004 643.8599999999999 248.52 645.8399999999999 241.54000000000002 C 647.8199999999999 234.56000000000003 653.1199999999999 228.8 659.5099999999999 225.37 C 665.8999999999999 221.94 673.2799999999999 220.68 680.5299999999999 220.78 C 677.7799999999999 220.31 675.3899999999999 223.49 675.9299999999998 226.23 C 676.4699999999998 228.96999999999997 679.0599999999998 230.92 681.7699999999999 231.60999999999999 C 684.4799999999999 232.29999999999998 687.3199999999998 231.98 690.1099999999999 231.76 C 697.0999999999999 231.22 704.1999999999999 231.35 710.9899999999999 233.07999999999998 C 717.7799999999999 234.79999999999998 724.5399999999998 238.48 727.7599999999999 244.70999999999998 C 730.9799999999999 250.93999999999997 729.2499999999999 259.93 722.8999999999999 262.89" stroke-linecap="round" />
</g>
<g transform="matrix(1 0 0 1 482.65 909.29)"  >
<path style="stroke: none; stroke-width: 1; stroke-dasharray: none; stroke-linecap: butt; stroke-dashoffset: 0; stroke-linejoin: miter; stroke-miterlimit: 4; fill: rgb(224,231,255); fill-rule: nonzero; opacity: 1;" vector-effect="non-scaling-stroke"  transform=" translate(-540, -928.62)" d="M 68.12 881.24 L 1011.87 881.24 C 1019.03 881.24 1024.83 887.04 1024.83 894.2 L 1024.83 963.0300000000001 C 1024.83 970.19 1019.03 975.9900000000001 1011.8699999999999 975.9900000000001 L 68.12 975.9900000000001 C 60.96000000000001 975.9900000000001 55.160000000000004 970.1900000000002 55.160000000000004 963.0300000000001 L 55.160000000000004 894.2 C 55.160000000000004 887.0400000000001 60.96 881.24 68.12 881.24 z" stroke-linecap="round" />
</g>
<g transform="matrix(1 0 0 1 316.57 506.94)"  >
<path style="stroke: none; stroke-width: 1; stroke-dasharray: none; stroke-linecap: butt; stroke-dashoffset: 0; stroke-linejoin: miter; stroke-miterlimit: 4; fill: rgb(252,210,177); fill-rule: nonzero; opacity: 1;" vector-effect="non-scaling-stroke"  transform=" translate(-371.7, -526.27)" d="M 505.83 464.76 C 505.83 464.76 517.89 460.78999999999996 520.25 462.18 C 522.61 463.57000000000005 534.86 480.03000000000003 534.86 480.03000000000003 L 518.47 487.85 L 499.91 475.81 L 505.83000000000004 464.76 z M 216.59 544.99 C 216.59 544.99 206.77 574.29 208.83 579.53 C 210.9 584.77 233.13000000000002 590.66 233.13000000000002 590.66 L 231.06000000000003 567.8299999999999 L 236.75000000000003 576.91 L 239.34000000000003 567.8299999999999 L 228.48 545 L 216.58999999999997 545 z" stroke-linecap="round" />
</g>
<g transform="matrix(1 0 0 1 286.04 853.51)"  >
<path style="stroke: none; stroke-width: 1; stroke-dasharray: none; stroke-linecap: butt; stroke-dashoffset: 0; stroke-linejoin: miter; stroke-miterlimit: 4; fill: rgb(10,57,81); fill-rule: nonzero; opacity: 1;" vector-effect="non-scaling-stroke"  transform=" translate(-341.17, -872.83)" d="M 387.08 864.43 L 438.89 881.2399999999999 L 375.81 881.2399999999999 L 375.81 864.43 z M 258.67 864.43 L 305.99 881.2399999999999 L 243.45000000000002 881.2399999999999 L 246.66000000000003 864.43 z" stroke-linecap="round" />
</g>
<g transform="matrix(1 0 0 1 294.55 674.02)"  >
<path style="stroke: none; stroke-width: 1; stroke-dasharray: none; stroke-linecap: butt; stroke-dashoffset: 0; stroke-linejoin: miter; stroke-miterlimit: 4; fill: rgb(24,24,27); fill-rule: nonzero; opacity: 1;" vector-effect="non-scaling-stroke"  transform=" translate(-349.68, -693.35)" d="M 358.32 524.2 L 393.38 872.09 L 372.29 872.09 C 372.29 872.09 322.15000000000003 725.9300000000001 338.88 706.59 C 333.5 682.64 299.25 587.76 307.15999999999997 577.63 C 315.07 567.5 329.57 514.61 329.57 514.61 L 358.32 524.2 z" stroke-linecap="round" />
</g>
<g transform="matrix(1 0 0 1 243.03 672.4)"  >
<path style="stroke: none; stroke-width: 1; stroke-dasharray: none; stroke-linecap: butt; stroke-dashoffset: 0; stroke-linejoin: miter; stroke-miterlimit: 4; fill: rgb(9,9,11); fill-rule: nonzero; opacity: 1;" vector-effect="non-scaling-stroke"  transform=" translate(-298.17, -691.73)" d="M 352.89 529.46 L 335.89 552.87 L 265.78999999999996 872.09 L 243.51999999999995 872.09 C 243.51999999999995 872.09 241.66999999999996 711.95 257.62999999999994 691.73 C 264.00999999999993 655.5500000000001 267.98999999999995 529.46 279.69999999999993 520.95 C 300.9799999999999 519.8900000000001 348.88999999999993 511.37000000000006 348.88999999999993 511.37000000000006 L 352.88999999999993 529.46 z" stroke-linecap="round" />
</g>
<g transform="matrix(1 0 0 1 238.33 431.08)"  >
<path style="stroke: none; stroke-width: 1; stroke-dasharray: none; stroke-linecap: butt; stroke-dashoffset: 0; stroke-linejoin: miter; stroke-miterlimit: 4; fill: rgb(39,39,42); fill-rule: nonzero; opacity: 1;" vector-effect="non-scaling-stroke"  transform=" translate(-293.46, -450.4)" d="M 360.04 567 L 338.04 519 L 294.04 567 L 274.04 531 C 274.04 531 266.04 428 256.04 406 C 204.04000000000002 439 233.04000000000002 548 233.04000000000002 548 C 233.04000000000002 548 229.04000000000002 550 216.04000000000002 548 C 186.04000000000002 472 220.04000000000002 379 234.04000000000002 357 C 244.90000000000003 339.94 276.8 336.11 300.84000000000003 333.85 C 307.8 333.20000000000005 317.6 338.78000000000003 322.54 338.11 C 322.54 338.11 344.89000000000004 337.36 363.89000000000004 342.64 L 363.91 342.65 C 372.11 344.92999999999995 379.03000000000003 347.19 382.04 349 C 388.04 356 360.04 567 360.04 567 z" stroke-linecap="round" />
</g>
<g transform="matrix(1 0 0 1 384.81 395.19)"  >
<path style="stroke: none; stroke-width: 1; stroke-dasharray: none; stroke-linecap: butt; stroke-dashoffset: 0; stroke-linejoin: miter; stroke-miterlimit: 4; fill: rgb(39,39,42); fill-rule: nonzero; opacity: 1;" vector-effect="non-scaling-stroke"  transform=" translate(-439.17, -414.51)" d="M 382.04 349 C 382.04 349 399.04 448 506.04 463 C 505.04 470 506.04 480 506.04 480 C 506.04 480 403.04 483 375.04 421 C 366.04 362 382.04 349 382.04 349 z" stroke-linecap="round" />
</g>
<g transform="matrix(1 0 0 1 274.45 376.74)"  >
<path style="stroke: none; stroke-width: 1; stroke-dasharray: none; stroke-linecap: butt; stroke-dashoffset: 0; stroke-linejoin: miter; stroke-miterlimit: 4; fill: rgb(255,255,255); fill-rule: nonzero; opacity: 1;" vector-effect="non-scaling-stroke"  transform=" translate(-329.58, -396.06)" d="M 358.32 341.14 L 339.34 460.13 L 300.84 333.85 C 307.79999999999995 333.20000000000005 314.09999999999997 332.67 319.03999999999996 332 L 358.31999999999994 341.14 z" stroke-linecap="round" />
</g>
<g transform="matrix(1 0 0 1 271.28 256.34)"  >
<path style="stroke: none; stroke-width: 1; stroke-dasharray: none; stroke-linecap: butt; stroke-dashoffset: 0; stroke-linejoin: miter; stroke-miterlimit: 4; fill: rgb(24,24,27); fill-rule: nonzero; opacity: 1;" vector-effect="non-scaling-stroke"  transform=" translate(-326.41, -275.67)" d="M 314.88 243.67 C 303.88 252.67 298.88 273.66999999999996 303.88 284.66999999999996 C 308.88 295.66999999999996 321.88 301.66999999999996 326.88 307.66999999999996 C 336.88 295.66999999999996 350.88 287.66999999999996 350.88 287.66999999999996 L 343.88 257.66999999999996 L 329.88 250.66999999999996 L 314.88 243.66999999999996 z" stroke-linecap="round" />
</g>
<g transform="matrix(1 0 0 1 276.75 300.77)"  >
<path style="stroke: none; stroke-width: 1; stroke-dasharray: none; stroke-linecap: butt; stroke-dashoffset: 0; stroke-linejoin: miter; stroke-miterlimit: 4; fill: rgb(252,210,177); fill-rule: nonzero; opacity: 1;" vector-effect="non-scaling-stroke"  transform=" translate(-331.88, -320.1)" d="M 348.88 313.25 L 348.88 339.25 L 338.88 354.25 L 314.88 332 L 324.38 285.95 z" stroke-linecap="round" />
</g>
<g transform="matrix(1 0 0 1 295.91 269.45)"  >
<path style="stroke: none; stroke-width: 1; stroke-dasharray: none; stroke-linecap: butt; stroke-dashoffset: 0; stroke-linejoin: miter; stroke-miterlimit: 4; fill: rgb(255,227,202); fill-rule: nonzero; opacity: 1;" vector-effect="non-scaling-stroke"  transform=" translate(-351.04, -288.78)" d="M 383.88 252.67 C 380.88 285.66999999999996 382.88 322.66999999999996 378.88 327.66999999999996 C 374.88 332.66999999999996 334.88 332.66999999999996 329.88 317.66999999999996 C 324.88 302.66999999999996 311.88 265.66999999999996 321.88 252.66999999999996 C 331.88 239.66999999999996 383.88 252.66999999999996 383.88 252.66999999999996 z" stroke-linecap="round" />
</g>
<g transform="matrix(1 0 0 1 270.61 258.57)"  >
<path style="stroke: none; stroke-width: 1; stroke-dasharray: none; stroke-linecap: butt; stroke-dashoffset: 0; stroke-linejoin: miter; stroke-miterlimit: 4; fill: rgb(24,24,27); fill-rule: nonzero; opacity: 1;" vector-effect="non-scaling-stroke"  transform=" translate(-325.74, -277.89)" d="M 335.88 255.67 C 337.88 263.66999999999996 335.88 278.66999999999996 327.88 280.66999999999996 C 327.88 284.48999999999995 328.29 291.15999999999997 328.58 295.48999999999995 C 328.6576823605027 296.63617452192653 328.27306394544706 297.76571361705106 327.51205861938035 298.6263072944302 C 326.75105329331365 299.48690097180935 325.677066761278 300.0068459896917 324.53 300.06999999999994 C 322.65 300.16999999999996 320.88 300.1499999999999 320.88 299.66999999999996 C 320.88 298.66999999999996 314.88 255.66999999999996 314.88 255.66999999999996 L 335.88 255.66999999999996 z" stroke-linecap="round" />
</g>
<g transform="matrix(0.97 -0.26 0.26 0.97 264.49 267.67)"  >
<ellipse style="stroke: none; stroke-width: 1; stroke-dasharray: none; stroke-linecap: butt; stroke-dashoffset: 0; stroke-linejoin: miter; stroke-miterlimit: 4; fill: rgb(255,227,202); fill-rule: nonzero; opacity: 1;" vector-effect="non-scaling-stroke"  cx="0" cy="0" rx="6.67" ry="11" />
</g>
<g transform="matrix(1 0 0 1 274.9 331.28)"  >
<path style="stroke: none; stroke-width: 1; stroke-dasharray: none; stroke-linecap: butt; stroke-dashoffset: 0; stroke-linejoin: miter; stroke-miterlimit: 4; fill: rgb(242,242,242); fill-rule: nonzero; opacity: 1;" vector-effect="non-scaling-stroke"  transform=" translate(-330.03, -350.61)" d="M 338.88 354.25 L 328.40999999999997 369.21 L 307.16999999999996 336.88 L 314.87999999999994 332 z M 338.88 354.25 L 342.14 369.21 L 352.89 346.22999999999996 L 348.88 339.24999999999994 z" stroke-linecap="round" />
</g>
<g transform="matrix(1 0 0 1 279.9 387.92)"  >
<path style="stroke: none; stroke-width: 1; stroke-dasharray: none; stroke-linecap: butt; stroke-dashoffset: 0; stroke-linejoin: miter; stroke-miterlimit: 4; fill: rgb(255,190,85); fill-rule: nonzero; opacity: 1;" vector-effect="non-scaling-stroke"  transform=" translate(-335.03, -407.25)" d="M 341.07 364.31 L 338.88 370.42 L 347.96 406.05 C 347.96 406.05 340.23999999999995 463.11 339.33 460.13 C 338.42 457.15 322.11 403.63 322.11 403.63 L 332.94 370.57 L 331.88 364.25 L 338.88 354.25 L 341.07 364.31 z" stroke-linecap="round" />
</g>
<g transform="matrix(1 0 0 1 304 243.35)"  >
<path style="stroke: none; stroke-width: 1; stroke-dasharray: none; stroke-linecap: butt; stroke-dashoffset: 0; stroke-linejoin: miter; stroke-miterlimit: 4; fill: rgb(24,24,27); fill-rule: nonzero; opacity: 1;" vector-effect="non-scaling-stroke"  transform=" translate(-354.89, -264.96)" d="M 326.88 279.67 L 327.88 297.67 L 322.88 298.67 L 320.88 273.67 z M 331.23 257.12 C 336.97 261.69 344.59000000000003 263.83 351.86 262.91 C 357.62 262.18 363.09000000000003 259.65000000000003 368.89 259.51000000000005 C 373.33 259.40000000000003 377.66999999999996 260.71000000000004 382.09 261.13000000000005 C 387.19 261.61000000000007 392.54999999999995 260.84000000000003 396.85999999999996 258.07000000000005 C 401.16999999999996 255.30000000000004 404.22999999999996 250.32000000000005 403.85999999999996 245.21000000000004 C 403.34999999999997 238.08000000000004 396.43999999999994 232.75000000000003 389.37999999999994 231.59000000000003 C 382.31999999999994 230.43000000000004 375.17999999999995 232.45000000000005 368.31999999999994 234.49000000000004 C 361.4699999999999 236.52000000000004 354.3499999999999 238.61000000000004 347.2799999999999 237.58000000000004 C 342.3299999999999 236.86000000000004 337.69999999999993 234.63000000000005 332.75999999999993 233.81000000000003 C 327.4099999999999 232.91000000000003 321.7799999999999 233.73000000000002 316.9099999999999 236.11000000000004 C 313.2299999999999 237.91000000000005 309.9299999999999 240.64000000000004 307.8999999999999 244.21000000000004 C 305.86999999999995 247.78000000000003 305.24999999999994 252.21000000000004 306.6599999999999 256.06000000000006 C 307.9299999999999 259.52000000000004 310.7499999999999 262.2900000000001 314.0499999999999 263.93000000000006 C 317.3499999999999 265.57000000000005 321.0999999999999 266.1500000000001 324.7899999999999 266.08000000000004 L 331.2299999999999 257.12000000000006 z" stroke-linecap="round" />
</g>
<g transform="matrix(1 0 0 1 466.52 456.74)"  >
<path style="stroke: none; stroke-width: 1; stroke-dasharray: none; stroke-linecap: butt; stroke-dashoffset: 0; stroke-linejoin: miter; stroke-miterlimit: 4; fill: rgb(255,227,202); fill-rule: nonzero; opacity: 1;" vector-effect="non-scaling-stroke"  transform=" translate(-521.65, -476.07)" d="M 507.8 484.79 C 509.73 482.09000000000003 515.53 474.86 515.53 474.86 L 530.2099999999999 484.79 L 520.17 491.36 L 507.79999999999995 484.79 z M 535.27 464.76 C 535.27 464.76 527.75 461.11 522.6999999999999 460.78999999999996 C 517.6499999999999 460.4699999999999 510.99999999999994 467.65999999999997 510.99999999999994 467.65999999999997 C 510.99999999999994 467.65999999999997 511.2099999999999 468.95 513.9 468.95 C 516.5799999999999 468.95 521.9499999999999 466.37 521.9499999999999 466.37 L 535.4999999999999 472.05 L 535.2699999999999 464.76 z" stroke-linecap="round" />
</g>
<g transform="matrix(1 0 0 1 813.45 201.41)"  >
<path style="stroke: rgb(49,46,129); stroke-width: 1; stroke-dasharray: none; stroke-linecap: butt; stroke-dashoffset: 0; stroke-linejoin: miter; stroke-miterlimit: 10; fill: none; fill-rule: nonzero; opacity: 1;" vector-effect="non-scaling-stroke"  transform=" translate(-868.59, -220.73)" d="M 926.99 175.1 L 810.18 175.1 C 787.05 175.1 768.13 194.01 768.13 217.12 C 768.13 233.27 777.37 247.35 790.82 254.38 L 788.2700000000001 266.37 C 788.2700000000001 266.37 807.1400000000001 259.14 810.1800000000001 259.14 L 926.99 259.14 C 950.12 259.14 969.04 240.23 969.04 217.11999999999998 C 969.04 194.01 950.12 175.09999999999997 926.99 175.09999999999997 z" stroke-linecap="round" />
</g>
<g transform="matrix(1 0 0 1 803.7 190.48)"  >
<path style="stroke: none; stroke-width: 1; stroke-dasharray: none; stroke-linecap: butt; stroke-dashoffset: 0; stroke-linejoin: miter; stroke-miterlimit: 4; fill: rgb(30,27,75); fill-rule: nonzero; opacity: 1;" vector-effect="non-scaling-stroke"  transform=" translate(-858.84, -209.81)" d="M 917.24 164.17 L 800.43 164.17 C 777.3 164.17 758.38 183.07999999999998 758.38 206.19 C 758.38 222.34 767.62 236.42 781.07 243.45 L 778.5200000000001 255.44 C 778.5200000000001 255.44 797.3900000000001 248.21 800.4300000000001 248.21 L 917.24 248.21 C 940.37 248.21 959.29 229.3 959.29 206.19 C 959.29 183.07999999999998 940.37 164.17 917.24 164.17 z" stroke-linecap="round" />
</g>
<g transform="matrix(1 0 0 1 164.81 221.34)"  >
<path style="stroke: none; stroke-width: 1; stroke-dasharray: none; stroke-linecap: butt; stroke-dashoffset: 0; stroke-linejoin: miter; stroke-miterlimit: 4; fill: rgb(129,140,248); fill-rule: nonzero; opacity: 1;" vector-effect="non-scaling-stroke"  transform=" translate(-219.94, -240.67)" d="M 283.79 194.34 L 156.08 194.34 C 150.77 194.34 146.42000000000002 198.69 146.42000000000002 204 L 146.42000000000002 264.01 C 146.42000000000002 269.32 150.77 273.67 156.08 273.67 L 252.48000000000002 273.67 L 270.37 287 L 262.84000000000003 273.67 L 283.8 273.67 C 289.11 273.67 293.46000000000004 269.32 293.46000000000004 264.01 L 293.46000000000004 204 C 293.46000000000004 198.69 289.11 194.34 283.79 194.34 z" stroke-linecap="round" />
</g>
<g transform="matrix(1 0 0 1 161.31 227.82)"  >
<path style="stroke: rgb(129,140,248); stroke-width: 1; stroke-dasharray: none; stroke-linecap: butt; stroke-dashoffset: 0; stroke-linejoin: miter; stroke-miterlimit: 10; fill: none; fill-rule: nonzero; opacity: 1;" vector-effect="non-scaling-stroke"  transform=" translate(-216.44, -246.89)" d="M 280.3 200.56 L 152.58 200.56 C 147.27 200.56 142.92000000000002 204.91 142.92000000000002 210.22 L 142.92000000000002 270.23 C 142.92000000000002 275.54 147.27 279.89000000000004 152.58 279.89000000000004 L 248.98000000000002 279.89000000000004 L 266.87 293.22 L 259.34000000000003 279.89000000000004 L 280.3 279.89000000000004 C 285.61 279.89000000000004 289.96000000000004 275.54 289.96000000000004 270.23 L 289.96000000000004 210.22000000000003 C 289.96000000000004 204.91000000000003 285.61 200.56000000000003 280.3 200.56000000000003 z" stroke-linecap="round" />
</g>
<g transform="matrix(1 0 0 1 70.18 835.07)"  >
<path style="stroke: none; stroke-width: 1; stroke-dasharray: none; stroke-linecap: butt; stroke-dashoffset: 0; stroke-linejoin: miter; stroke-miterlimit: 4; fill: rgb(182,231,255); fill-rule: nonzero; opacity: 1;" vector-effect="non-scaling-stroke"  transform=" translate(-125.31, -854.4)" d="M 125.31 893.62 C 146.99 893.62 156.14 876.3100000000001 159.74 857.94 C 163.81 837.22 160.82000000000002 815.1700000000001 160.82000000000002 815.1700000000001 L 89.8 815.1700000000001 C 89.8 815.1700000000001 89.69 816.0100000000001 89.53 817.5100000000001 C 88.21000000000001 830.5500000000001 83.93 893.6200000000001 125.31 893.6200000000001 z" stroke-linecap="round" />
</g>
<g transform="matrix(1 0 0 1 70.19 795.84)"  >
<path style="stroke: none; stroke-width: 1; stroke-dasharray: none; stroke-linecap: butt; stroke-dashoffset: 0; stroke-linejoin: miter; stroke-miterlimit: 4; fill: rgb(133,221,255); fill-rule: nonzero; opacity: 1;" vector-effect="non-scaling-stroke"  transform=" translate(-125.32, -815.17)" d="M 89.8 815.17 C 89.8 816.7199999999999 105.7 817.9799999999999 125.32 817.9799999999999 C 144.93 817.9799999999999 160.84 816.7199999999999 160.84 815.17 C 160.84 813.62 144.94 812.36 125.32 812.36 C 105.69999999999999 812.36 89.79999999999998 813.62 89.79999999999998 815.17 z" stroke-linecap="round" />
</g>
<g transform="matrix(1 0 0 1 23.06 697.78)"  >
<path style="stroke: none; stroke-width: 1; stroke-dasharray: none; stroke-linecap: butt; stroke-dashoffset: 0; stroke-linejoin: miter; stroke-miterlimit: 4; fill: rgb(67,56,202); fill-rule: nonzero; opacity: 1;" vector-effect="non-scaling-stroke"  transform=" translate(-78.19, -717.11)" d="M 29.14 618.26 C 29.14 618.26 66.6 675.25 89.07 710.03 C 111.53999999999999 744.81 117.42999999999999 752.03 120.1 763.27 C 122.78 774.51 125.17999999999999 815.97 125.17999999999999 815.97 L 126.83999999999999 815.97 C 126.83999999999999 815.97 126.25999999999999 780.77 124.24 768.9300000000001 C 122.28 757.48 124.38 753.3700000000001 125.99 741.33 C 127.6 729.2900000000001 129.74 710.0300000000001 117.56 696.6500000000001 C 105.39 683.2700000000001 108.6 670.1600000000001 104.32000000000001 661.3400000000001 C 100.04 652.5100000000001 66.86000000000001 641.8100000000002 62.580000000000005 632.7100000000002 C 58.300000000000004 623.6100000000001 39.580000000000005 617.9900000000001 29.140000000000008 618.2600000000001 z" stroke-linecap="round" />
</g>
<g transform="matrix(1 0 0 1 4.94 644.81)"  >
<path style="stroke: none; stroke-width: 1; stroke-dasharray: none; stroke-linecap: butt; stroke-dashoffset: 0; stroke-linejoin: miter; stroke-miterlimit: 4; fill: rgb(129,140,248); fill-rule: nonzero; opacity: 1;" vector-effect="non-scaling-stroke"  transform=" translate(-60.47, -664.14)" d="M 29.14 618.26 C 29.14 618.26 40.91 631.64 48.94 636.1899999999999 C 56.97 640.7399999999999 60.709999999999994 636.7199999999999 66.86 647.6899999999999 C 73.01 658.66 73.25 663.4799999999999 78.88 669.0899999999999 C 84.50999999999999 674.7099999999999 91.19999999999999 674.9799999999999 91.74 687.28 C 92.28 699.5899999999999 89.07 710.02 89.07 710.02 C 89.07 710.02 31.54999999999999 621.2 29.139999999999993 618.26 z" stroke-linecap="round" />
</g>
<g transform="matrix(1 0 0 1 25.94 752.82)"  >
<path style="stroke: none; stroke-width: 1; stroke-dasharray: none; stroke-linecap: butt; stroke-dashoffset: 0; stroke-linejoin: miter; stroke-miterlimit: 4; fill: rgb(67,56,202); fill-rule: nonzero; opacity: 1;" vector-effect="non-scaling-stroke"  transform=" translate(-81.07, -771.6)" d="M 122.22 815.97 L 120.53999999999999 815.97 C 120.53999999999999 815.97 120.03999999999999 804.58 115.50999999999999 799.0500000000001 C 112.58999999999999 795.48 100.19 791.4300000000001 87.94 786.57 C 81.19 783.9000000000001 74.49 780.98 69.42999999999999 777.7600000000001 C 55.17999999999999 768.7100000000002 41.599999999999994 739.5500000000001 40.44 734.3500000000001 C 40.03 732.5400000000002 39.849999999999994 731.4400000000002 39.86 730.6900000000002 L 39.86 730.6700000000002 C 39.89 729.2700000000002 40.58 729.0600000000002 41.78 727.6500000000002 C 42.36 726.9700000000003 44.09 727.2000000000002 46.21 727.8500000000003 C 52.35 729.7200000000003 57.54 733.9300000000003 60.75 739.4900000000002 C 63.72 744.6300000000002 68.47 751.0600000000003 74.28999999999999 752.6200000000002 C 84.35 755.3000000000002 83.50999999999999 756.9700000000003 87.22 767.2000000000003 C 90.92 777.4300000000003 100.27 779.1000000000003 112 791.1600000000003 C 123.73 803.2300000000004 122.22 815.9700000000003 122.22 815.9700000000003 z" stroke-linecap="round" />
</g>
<g transform="matrix(1 0 0 1 8.37 739.3)"  >
<path style="stroke: none; stroke-width: 1; stroke-dasharray: none; stroke-linecap: butt; stroke-dashoffset: 0; stroke-linejoin: miter; stroke-miterlimit: 4; fill: rgb(129,140,248); fill-rule: nonzero; opacity: 1;" vector-effect="non-scaling-stroke"  transform=" translate(-63.9, -758.63)" d="M 87.94 786.57 C 81.19 783.9000000000001 74.49 780.98 69.42999999999999 777.7600000000001 C 55.17999999999999 768.7100000000002 41.599999999999994 739.5500000000001 40.44 734.3500000000001 C 40.03 732.5400000000002 39.849999999999994 731.4400000000002 39.86 730.6900000000002 C 39.9 731.0300000000002 40.56 735.6500000000002 47.99 738.7200000000001 C 55.690000000000005 741.9000000000001 57.2 741.9000000000001 58.21 746.7600000000001 C 59.22 751.6200000000001 60.06 756.82 64.08 757.82 C 68.1 758.83 70.62 754.3000000000001 73.78999999999999 761.6700000000001 C 76.97999999999999 769.0400000000001 78.49999999999999 771.5600000000001 81.41999999999999 772.5600000000001 C 84.35 773.57 86.57 772.0600000000001 87.21999999999998 777.7600000000001 C 87.60999999999999 781.2400000000001 87.82999999999998 784.5400000000001 87.93999999999998 786.57 z" stroke-linecap="round" />
</g>
<g transform="matrix(1 0 0 1 128.14 714.18)"  >
<path style="stroke: none; stroke-width: 1; stroke-dasharray: none; stroke-linecap: butt; stroke-dashoffset: 0; stroke-linejoin: miter; stroke-miterlimit: 4; fill: rgb(67,56,202); fill-rule: nonzero; opacity: 1;" vector-effect="non-scaling-stroke"  transform=" translate(-183.28, -733.51)" d="M 134.54 815.97 L 136.53 815.97 C 136.53 815.97 140.42 745.4200000000001 145.77 738.87 C 149.22 734.64 160.62 727.07 175.14000000000001 721.3100000000001 C 183.13000000000002 718.1400000000001 191.08 714.69 197.07000000000002 710.8800000000001 C 213.95000000000002 700.1600000000001 230.03000000000003 665.6200000000001 231.41000000000003 659.4600000000002 C 231.90000000000003 657.3200000000002 232.11 656.0200000000001 232.10000000000002 655.1200000000001 L 232.10000000000002 655.1000000000001 C 232.06000000000003 653.4400000000002 231.24 653.1900000000002 229.83 651.5300000000001 C 229.15 650.7200000000001 227.09 651.0000000000001 224.58 651.7700000000001 C 217.3 653.9900000000001 211.16000000000003 658.9700000000001 207.36 665.5600000000001 C 203.84 671.6500000000001 198.21 679.2700000000001 191.32000000000002 681.11 C 179.41000000000003 684.29 180.40000000000003 686.27 176.00000000000003 698.38 C 171.62000000000003 710.49 160.54000000000002 712.47 146.65000000000003 726.76 C 132.75000000000003 741.05 134.54000000000002 815.97 134.54000000000002 815.97 z" stroke-linecap="round" />
</g>
<g transform="matrix(1 0 0 1 148.49 668.89)"  >
<path style="stroke: none; stroke-width: 1; stroke-dasharray: none; stroke-linecap: butt; stroke-dashoffset: 0; stroke-linejoin: miter; stroke-miterlimit: 4; fill: rgb(129,140,248); fill-rule: nonzero; opacity: 1;" vector-effect="non-scaling-stroke"  transform=" translate(-203.62, -688.21)" d="M 175.14 721.31 C 183.13 718.14 191.07999999999998 714.6899999999999 197.07 710.88 C 213.95 700.16 230.03 665.62 231.41 659.46 C 231.9 657.32 232.10999999999999 656.02 232.1 655.12 C 232.04999999999998 655.53 231.26999999999998 660.99 222.48 664.62 C 213.35999999999999 668.38 211.57 668.38 210.38 674.15 C 209.19 679.9 208.19 686.06 203.43 687.25 C 198.67000000000002 688.44 195.69 683.08 191.92000000000002 691.81 C 188.14000000000001 700.54 186.35000000000002 703.52 182.88000000000002 704.7099999999999 C 179.41000000000003 705.9 176.78000000000003 704.1099999999999 176.01000000000002 710.8699999999999 C 175.53000000000003 714.9999999999999 175.27 718.9099999999999 175.14000000000001 721.31 z" stroke-linecap="round" />
</g>
<g transform="matrix(1 0 0 1 69.11 836.24)"  >
<path style="stroke: none; stroke-width: 1; stroke-dasharray: none; stroke-linecap: butt; stroke-dashoffset: 0; stroke-linejoin: miter; stroke-miterlimit: 4; fill: rgb(204,233,255); fill-rule: nonzero; opacity: 1;" vector-effect="non-scaling-stroke"  transform=" translate(-124.24, -855.57)" d="M 125.31 893.62 C 146.99 893.62 156.14 876.3100000000001 159.74 857.94 C 138.49 849.8800000000001 111.73000000000002 836.97 89.53000000000002 817.5100000000001 C 88.21000000000002 830.5500000000001 83.93000000000002 893.6200000000001 125.31000000000002 893.6200000000001 z" stroke-linecap="round" />
</g>
<g transform="matrix(1 0 0 1 901.3 850.98)"  >
<path style="stroke: none; stroke-width: 1; stroke-dasharray: none; stroke-linecap: butt; stroke-dashoffset: 0; stroke-linejoin: miter; stroke-miterlimit: 4; fill: rgb(182,231,255); fill-rule: nonzero; opacity: 1;" vector-effect="non-scaling-stroke"  transform=" translate(-956.44, -870.31)" d="M 956.44 896.27 C 970.7900000000001 896.27 976.84 884.81 979.23 872.65 C 981.9200000000001 858.9399999999999 979.95 844.34 979.95 844.34 L 932.94 844.34 C 932.94 844.34 932.87 844.9 932.7600000000001 845.89 C 931.8800000000001 854.53 929.0500000000001 896.27 956.44 896.27 z" stroke-linecap="round" />
</g>
<g transform="matrix(1 0 0 1 901.31 825.02)"  >
<path style="stroke: none; stroke-width: 1; stroke-dasharray: none; stroke-linecap: butt; stroke-dashoffset: 0; stroke-linejoin: miter; stroke-miterlimit: 4; fill: rgb(133,221,255); fill-rule: nonzero; opacity: 1;" vector-effect="non-scaling-stroke"  transform=" translate(-956.44, -844.35)" d="M 932.93 844.35 C 932.93 845.38 943.4499999999999 846.21 956.4399999999999 846.21 C 969.42 846.21 979.9499999999999 845.38 979.9499999999999 844.35 C 979.9499999999999 843.32 969.43 842.49 956.4399999999999 842.49 C 943.4599999999999 842.49 932.93 843.32 932.93 844.35 z" stroke-linecap="round" />
</g>
<g transform="matrix(1 0 0 1 863.63 747.22)"  >
<path style="stroke: none; stroke-width: 1; stroke-dasharray: none; stroke-linecap: butt; stroke-dashoffset: 0; stroke-linejoin: miter; stroke-miterlimit: 4; fill: rgb(67,56,202); fill-rule: nonzero; opacity: 1;" vector-effect="non-scaling-stroke"  transform=" translate(-918.76, -766.55)" d="M 879.35 688.23 C 879.35 688.23 909.03 733.38 926.83 760.94 C 944.64 788.5 949.3000000000001 794.22 951.4200000000001 803.12 C 953.5400000000001 812.02 955.45 844.88 955.45 844.88 L 957.7800000000001 844.88 C 957.7800000000001 844.88 959.2600000000001 817.11 956.5100000000001 808 C 953.7500000000001 798.89 954.8100000000001 795.28 956.0900000000001 785.74 C 957.3600000000001 776.2 959.0600000000002 760.94 949.4100000000002 750.34 C 939.7700000000002 739.74 942.3100000000002 729.36 938.9200000000002 722.36 C 935.5300000000002 715.36 909.2400000000002 706.89 905.8500000000001 699.6800000000001 C 902.4600000000002 692.47 887.6200000000001 688.0200000000001 879.3500000000001 688.23 z" stroke-linecap="round" />
</g>
<g transform="matrix(1 0 0 1 855.53 705.25)"  >
<path style="stroke: none; stroke-width: 1; stroke-dasharray: none; stroke-linecap: butt; stroke-dashoffset: 0; stroke-linejoin: miter; stroke-miterlimit: 4; fill: rgb(29,78,216); fill-rule: nonzero; opacity: 1;" vector-effect="non-scaling-stroke"  transform=" translate(-910.67, -724.58)" d="M 885.84 688.23 C 885.84 688.23 895.1700000000001 698.83 901.5300000000001 702.4300000000001 C 907.8900000000001 706.0300000000001 910.8600000000001 702.85 915.7300000000001 711.5400000000001 C 920.6100000000001 720.2300000000001 920.7900000000001 724.0500000000001 925.2600000000001 728.5000000000001 C 929.7200000000001 732.9500000000002 935.0200000000001 733.1600000000001 935.4500000000002 742.9100000000001 C 935.8700000000001 752.6600000000001 933.3300000000002 760.9300000000001 933.3300000000002 760.9300000000001 C 933.3300000000002 760.9300000000001 887.7500000000001 690.5600000000001 885.8400000000001 688.23 z" stroke-linecap="round" />
</g>
<g transform="matrix(1 0 0 1 938.34 768.06)"  >
<path style="stroke: none; stroke-width: 1; stroke-dasharray: none; stroke-linecap: butt; stroke-dashoffset: 0; stroke-linejoin: miter; stroke-miterlimit: 4; fill: rgb(67,56,202); fill-rule: nonzero; opacity: 1;" vector-effect="non-scaling-stroke"  transform=" translate(-993.48, -787.38)" d="M 965.32 844.35 L 967.0200000000001 843.84 C 967.0200000000001 843.84 964.07 832.1600000000001 966.9800000000001 825.19 C 968.8500000000001 820.69 980.1700000000002 812.83 991.1000000000001 804.2 C 997.1200000000001 799.45 1003.0200000000001 794.46 1007.1700000000002 789.6700000000001 C 1018.8500000000001 776.19 1023.7400000000002 742.5600000000001 1023.3500000000001 736.94 C 1023.2200000000001 734.98 1023.0700000000002 733.82 1022.8300000000002 733.0600000000001 L 1022.8200000000002 733.0400000000001 C 1022.3700000000001 731.6300000000001 1021.6000000000001 731.6300000000001 1019.9600000000002 730.57 C 1019.1700000000002 730.0500000000001 1017.4800000000001 730.82 1015.5400000000002 732.12 C 1009.8900000000002 735.88 1005.9200000000002 741.71 1004.3500000000001 748.3100000000001 C 1002.9000000000001 754.4200000000001 1000.0400000000002 762.37 994.6300000000001 765.7 C 985.2700000000001 771.47 986.6200000000001 772.9000000000001 985.9600000000002 784.38 C 985.3200000000002 795.85 976.3600000000001 800.38 968.1500000000002 816.15 C 959.9300000000002 831.91 965.3200000000002 844.35 965.3200000000002 844.35 z" stroke-linecap="round" />
</g>
<g transform="matrix(1 0 0 1 951.02 749.29)"  >
<path style="stroke: none; stroke-width: 1; stroke-dasharray: none; stroke-linecap: butt; stroke-dashoffset: 0; stroke-linejoin: miter; stroke-miterlimit: 4; fill: rgb(29,78,216); fill-rule: nonzero; opacity: 1;" vector-effect="non-scaling-stroke"  transform=" translate(-1006.15, -768.62)" d="M 991.1 804.19 C 997.12 799.44 1003.02 794.45 1007.1700000000001 789.6600000000001 C 1018.85 776.1800000000001 1023.7400000000001 742.5500000000001 1023.35 736.9300000000001 C 1023.22 734.97 1023.07 733.8100000000001 1022.83 733.0500000000001 C 1022.89 733.4100000000001 1023.62 738.2800000000001 1017.0400000000001 743.6400000000001 C 1010.21 749.19 1008.6800000000001 749.6500000000001 1009.1400000000001 754.8800000000001 C 1009.6000000000001 760.1000000000001 1010.32 765.6200000000001 1006.5500000000001 767.8600000000001 C 1002.7800000000001 770.1000000000001 998.8700000000001 766.2800000000001 997.8900000000001 774.7000000000002 C 996.9000000000001 783.1300000000001 996.1300000000001 786.1300000000001 993.4700000000001 788.0400000000002 C 990.8100000000002 789.9400000000002 988.1100000000001 789.0900000000001 989.1700000000002 795.0600000000002 C 989.8200000000002 798.6900000000002 990.6000000000001 802.1000000000001 991.1000000000001 804.1900000000002 z" stroke-linecap="round" />
</g>
<g transform="matrix(1 0 0 1 900.59 851.75)"  >
<path style="stroke: none; stroke-width: 1; stroke-dasharray: none; stroke-linecap: butt; stroke-dashoffset: 0; stroke-linejoin: miter; stroke-miterlimit: 4; fill: rgb(204,233,255); fill-rule: nonzero; opacity: 1;" vector-effect="non-scaling-stroke"  transform=" translate(-955.73, -871.08)" d="M 956.44 896.27 C 970.7900000000001 896.27 976.84 884.81 979.23 872.65 C 965.1700000000001 867.3199999999999 947.45 858.77 932.76 845.89 C 931.88 854.53 929.05 896.27 956.4399999999999 896.27 z" stroke-linecap="round" />
</g>
<g transform="matrix(0 0 0 0 -57.35 10.75)"  >
<g style=""   >
</g>
</g>
<g transform="matrix(0 0 0 0 -57.35 10.75)"  >
<g style=""   >
</g>
</g>
<g transform="matrix(0 0 0 0 -57.35 10.75)"  >
<g style=""   >
</g>
</g>
<g transform="matrix(0 0 0 0 -57.35 10.75)"  >
<g style=""   >
</g>
</g>
<g transform="matrix(0 0 0 0 -57.35 10.75)"  >
<g style=""   >
</g>
</g>
<g transform="matrix(0 0 0 0 -57.35 10.75)"  >
<g style=""   >
</g>
</g>
<g transform="matrix(0 0 0 0 -57.35 10.75)"  >
<g style=""   >
</g>
</g>
<g transform="matrix(0 0 0 0 -57.35 10.75)"  >
<g style=""   >
</g>
</g>
<g transform="matrix(0 0 0 0 -57.35 10.75)"  >
<g style=""   >
</g>
</g>
<g transform="matrix(0 0 0 0 -57.35 10.75)"  >
<g style=""   >
</g>
</g>
<g transform="matrix(0 0 0 0 -57.35 10.75)"  >
<g style=""   >
</g>
</g>
<g transform="matrix(0 0 0 0 -57.35 10.75)"  >
<g style=""   >
</g>
</g>
<g transform="matrix(0 0 0 0 -57.35 10.75)"  >
<g style=""   >
</g>
</g>
<g transform="matrix(0 0 0 0 -57.35 10.75)"  >
<g style=""   >
</g>
</g>
<g transform="matrix(0 0 0 0 -57.35 10.75)"  >
<g style=""   >
</g>
</g>
<g transform="matrix(0 0 0 0 -57.35 10.75)"  >
<g style=""   >
</g>
</g>
<g transform="matrix(0 0 0 0 -57.35 10.75)"  >
<g style=""   >
</g>
</g>
<g transform="matrix(0 0 0 0 -57.35 10.75)"  >
<g style=""   >
</g>
</g>
<g transform="matrix(0 0 0 0 -57.35 10.75)"  >
<g style=""   >
</g>
</g>
<g transform="matrix(0 0 0 0 -57.35 10.75)"  >
<g style=""   >
</g>
</g>
<g transform="matrix(0 0 0 0 -57.35 10.75)"  >
<g style=""   >
</g>
</g>
<g transform="matrix(0 0 0 0 -57.35 10.75)"  >
<g style=""   >
</g>
</g>
<g transform="matrix(0 0 0 0 -57.35 10.75)"  >
<g style=""   >
</g>
</g>
<g transform="matrix(0 0 0 0 -57.35 10.75)"  >
<g style=""   >
</g>
</g>
<g transform="matrix(0 0 0 0 -57.35 10.75)"  >
<g style=""   >
</g>
</g>
<g transform="matrix(0 0 0 0 -57.35 10.75)"  >
<g style=""   >
</g>
</g>
<g transform="matrix(0 0 0 0 -57.35 10.75)"  >
<g style=""   >
</g>
</g>
<g transform="matrix(0 0 0 0 -57.35 10.75)"  >
<g style=""   >
</g>
</g>
<g transform="matrix(0 0 0 0 -57.35 10.75)"  >
<g style=""   >
</g>
</g>
<g transform="matrix(0 0 0 0 -57.35 10.75)"  >
<g style=""   >
</g>
</g>
<g transform="matrix(0 0 0 0 -57.35 10.75)"  >
<g style=""   >
</g>
</g>
<g transform="matrix(0 0 0 0 -57.35 10.75)"  >
<g style=""   >
</g>
</g>
<g transform="matrix(0 0 0 0 -57.35 10.75)"  >
<g style=""   >
</g>
</g>
<g transform="matrix(0 0 0 0 -57.35 10.75)"  >
<g style=""   >
</g>
</g>
<g transform="matrix(0 0 0 0 -57.35 10.75)"  >
<g style=""   >
</g>
</g>
<g transform="matrix(0 0 NaN NaN 0 0)"  >
<g style=""   >
</g>
</g>
<g transform="matrix(0 0 NaN NaN 0 0)"  >
<g style=""   >
</g>
</g>
<g transform="matrix(0 0 NaN NaN 0 0)"  >
<g style=""   >
</g>
</g>
<g transform="matrix(0 0 NaN NaN 0 0)"  >
<g style=""   >
</g>
</g>
<g transform="matrix(0 0 NaN NaN 0 0)"  >
<g style=""   >
</g>
</g>
<g transform="matrix(0 0 NaN NaN 0 0)"  >
<g style=""   >
</g>
</g>
<g transform="matrix(0 0 NaN NaN 0 0)"  >
<g style=""   >
</g>
</g>
<g transform="matrix(0 0 NaN NaN 0 0)"  >
<g style=""   >
</g>
</g>
<g transform="matrix(0 0 NaN NaN 0 0)"  >
<g style=""   >
</g>
</g>
<g transform="matrix(0 0 NaN NaN 0 0)"  >
<g style=""   >
</g>
</g>
<g transform="matrix(0 0 NaN NaN 0 0)"  >
<g style=""   >
</g>
</g>
<g transform="matrix(0 0 NaN NaN 0 0)"  >
<g style=""   >
</g>
</g>
</svg>