<svg xmlns="http://www.w3.org/2000/svg" xml:space="preserve" viewBox="0 0 1080 1080" enable-background="new 0 0 1080 1080" id="business-deal">
  <circle cx="976.07" cy="520.75" r="70.35" fill="none" stroke="#c1c1c1" stroke-miterlimit="10" stroke-dasharray="12.278 12.278"></circle>
  <path d="M810.51 256.29c28.83 9.77 57.49 21.69 77.66 40.41 20.17 18.72 30.27 45.63 18.17 68.15-16.16 30.08-67.36 47.57-67.6 80.16-.17 23.34 27.61 41.15 55.66 49.64 28.04 8.48 59.09 11.54 84.6 23.94 38.49 18.71 56.54 54.93 63.93 89.68 7.67 36.08 4.56 77.16-28.37 103.34-40.93 32.54-108.63 28.87-166.58 21.93-77.33-9.26-154.32-20.14-231.29-31.01-168.74-23.84-337.48-47.69-506.22-71.53-18.09-2.56-36.92-5.35-51.62-13.92-29.19-17.01-31.67-52.13-14.7-77.2 16.97-25.07 48.36-42.1 79.54-56.85 31.18-14.74 64.1-28.68 87.46-50.45 23.35-21.77 34.97-53.99 17.3-78.77-14.97-20.99-47.14-32.21-61.16-53.59-18.48-28.17 2.78-64.15 36.31-82.13s454.59-13.44 606.91 38.2z" fill="#d4d4d8"></path>
  <path d="m876.9 569.68-12.75 2.54-1.83-9.17c-1.24-6.24-7.02-10.36-12.87-9.2l-62.85 12.54c-5.85 1.17-9.61 7.19-8.36 13.43l1.83 9.17-12.75 2.54c-1.45.29-2.38 1.79-2.08 3.33l13.35 66.95c.31 1.54 1.75 2.57 3.2 2.28l109.6-21.86c1.45-.29 2.38-1.79 2.08-3.33l-13.35-66.95c-.33-1.53-1.77-2.56-3.22-2.27zm-15.79 3.15-78.02 15.56-1.83-9.17c-.89-4.46 1.79-8.76 5.97-9.59l62.85-12.54c4.18-.83 8.31 2.11 9.2 6.57l1.83 9.17z" fill="#ffbe55"></path>
  <path d="m835.12 613.71-13.09 2.61-55.51-17.39.37-.53 55.28 17.32 12.59-2.51L879.17 576l.54.35z" fill="#fff"></path>
  <path d="M535.07 464.76s-12.05-3.97-14.42-2.58-14.61 17.85-14.61 17.85l16.39 7.82 18.56-12.04-5.92-11.05zM824.31 544.99s9.82 19.9 7.76 23.45C830 572 807.77 576 807.77 576l-5.95-19.96 10.61-11.06h11.88z" fill="#fcd2b1"></path>
  <path d="m653.83 864.43-51.81 16.81h63.07v-16.81zM782.24 864.43l-47.32 16.81h62.54l-3.21-16.81z" fill="#0a3951"></path>
  <path d="m680.22 519.97-32.7 352.12h21.09s50.14-146.16 33.41-165.5c5.38-23.95 39.63-118.83 31.72-128.96-7.91-10.13-22.41-63.02-22.41-63.02l-31.11 5.36z" fill="#083047"></path>
  <path d="m688.02 529.46 17 23.41 70.1 319.22h22.27s1.85-160.14-14.11-180.36c-6.38-36.18-9.4-159.25-14.11-172.74-21.28-1.06-77.15-7.62-77.15-7.62l-4 18.09z" fill="#0a3951"></path>
  <path d="M806.87 357c-10.86-17.06-42.33-15.49-66.37-17.75-6.96-.65-12.77-3.58-17.71-4.25l-32.73 9.86c-1.88.4-28.18 2.33-31.19 4.14-.36.42-28.85 100.66-124 114 1 7 0 17 0 17s97.99 2.84 128.79-54.56c6.76 62.87 16.56 94.53 16.56 94.53l90 3.96s4.64-95.92 14.64-117.92c52 33 23 142 23 142s4 2 17 0C854.87 472 820.87 379 806.87 357z" fill="#fff"></path>
  <path d="m702.02 354.25 10.48 14.96 21.24-32.33-7.72-4.88zM702.02 354.25l-3.26 14.96-10.74-22.98 4-6.98z" fill="#f2f2f2"></path>
  <path d="m699.83 365.39 2.19 6.77-10.61 117.05s13.55 53.94 14.46 50.64c.91-3.3 14.19-46.27 14.19-46.27l-12.09-121.25 1.06-7.01-7-11.08-2.2 11.15z" fill="#ffbe55"></path>
  <path d="M726.06 246.32c11 9 16 30 11 41s-18 17-23 23c-10-12-24-20-24-20l7-30 14-7 15-7z" fill="#0e538c"></path>
  <path d="M692.06 315.9v26l10 15 24-22.25-9.5-46.05z" fill="#fcd2b1"></path>
  <path d="M661.35 254.99c2.8 31.11-12.08 61.24 4.67 70.72 3.74 4.71 41.38 9.9 46.05-4.24s16.57-54.22 7.22-66.48c-9.34-12.26-57.94 0-57.94 0z" fill="#ffe3ca"></path>
  <path d="M705.06 258.32c-2 8 0 23 8 25 0 3.82-.41 10.49-.7 14.82a4.296 4.296 0 0 0 4.05 4.58c1.88.1 3.65.08 3.65-.4 0-1 6-44 6-44h-21z" fill="#0e538c"></path>
  <ellipse cx="721.32" cy="289.65" rx="11" ry="6.67" transform="rotate(-74.984 721.28 289.638)" fill="#ffe3ca"></ellipse>
  <path d="m714.06 282.32-1 18 5 1 2-25zM726.42 260.22a273.124 273.124 0 0 1-50.56 7.3c-8.79.44-18.56.1-24.98-5.92-5.29-4.96-7.02-13.08-5.04-20.06s7.28-12.74 13.67-16.17c6.39-3.43 13.77-4.69 21.02-4.59-2.75-.47-5.14 2.71-4.6 5.45s3.13 4.69 5.84 5.38 5.55.37 8.34.15c6.99-.54 14.09-.41 20.88 1.32 6.79 1.72 13.55 5.4 16.77 11.63s1.49 15.22-4.86 18.18" fill="#0e538c"></path>
  <path d="M68.12 881.24h943.75c7.16 0 12.96 5.8 12.96 12.96v68.83c0 7.16-5.8 12.96-12.96 12.96H68.12c-7.16 0-12.96-5.8-12.96-12.96V894.2c0-7.16 5.8-12.96 12.96-12.96z" fill="#f2f2f2"></path>
  <path d="M505.83 464.76s12.06-3.97 14.42-2.58 14.61 17.85 14.61 17.85l-16.39 7.82-18.56-12.04 5.92-11.05zM216.59 544.99s-9.82 29.3-7.76 34.54c2.07 5.24 24.3 11.13 24.3 11.13l-2.07-22.83 5.69 9.08 2.59-9.08L228.48 545h-11.89z" fill="#fcd2b1"></path>
  <path d="m387.08 864.43 51.81 16.81h-63.08v-16.81zM258.67 864.43l47.32 16.81h-62.54l3.21-16.81z" fill="#0a3951"></path>
  <path d="m358.32 524.2 35.06 347.89h-21.09s-50.14-146.16-33.41-165.5c-5.38-23.95-39.63-118.83-31.72-128.96 7.91-10.13 22.41-63.02 22.41-63.02l28.75 9.59z" fill="#083047"></path>
  <path d="m352.89 529.46-17 23.41-70.1 319.22h-22.27s-1.85-160.14 14.11-180.36c6.38-36.18 10.36-162.27 22.07-170.78 21.28-1.06 69.19-9.58 69.19-9.58l4 18.09z" fill="#0a3951"></path>
  <path d="m360.04 567-22-48-44 48-20-36s-8-103-18-125c-52 33-23 142-23 142s-4 2-17 0c-30-76 4-169 18-191 10.86-17.06 42.76-20.89 66.8-23.15 6.96-.65 16.76 4.93 21.7 4.26 0 0 22.35-.75 41.35 4.53l.02.01c8.2 2.28 15.12 4.54 18.13 6.35 6 7-22 218-22 218z" fill="#0e538c"></path>
  <path d="M382.04 349s17 99 124 114c-1 7 0 17 0 17s-103 3-131-59c-9-59 7-72 7-72z" fill="#0e538c"></path>
  <path d="m358.32 341.14-18.98 118.99-38.5-126.28c6.96-.65 13.26-1.18 18.2-1.85l39.28 9.14z" fill="#fff"></path>
  <path d="M314.88 243.67c-11 9-16 30-11 41s18 17 23 23c10-12 24-20 24-20l-7-30-14-7-15-7z" fill="#0e538c"></path>
  <path d="M348.88 313.25v26l-10 15-24-22.25 9.5-46.05z" fill="#fcd2b1"></path>
  <path d="M383.88 252.67c-3 33-1 70-5 75s-44 5-49-10-18-52-8-65 62 0 62 0z" fill="#ffe3ca"></path>
  <path d="M335.88 255.67c2 8 0 23-8 25 0 3.82.41 10.49.7 14.82a4.296 4.296 0 0 1-4.05 4.58c-1.88.1-3.65.08-3.65-.4 0-1-6-44-6-44h21z" fill="#0e538c"></path>
  <ellipse cx="319.62" cy="287" rx="6.67" ry="11" transform="rotate(-15.016 319.614 286.994)" fill="#ffe3ca"></ellipse>
  <path d="m326.88 279.67 1 18-5 1-2-25zM331.23 257.12c5.74 4.57 13.36 6.71 20.63 5.79 5.76-.73 11.23-3.26 17.03-3.4 4.44-.11 8.78 1.2 13.2 1.62 5.1.48 10.46-.29 14.77-3.06 4.31-2.77 7.37-7.75 7-12.86-.51-7.13-7.42-12.46-14.48-13.62s-14.2.86-21.06 2.9c-6.85 2.03-13.97 4.12-21.04 3.09-4.95-.72-9.58-2.95-14.52-3.77-5.35-.9-10.98-.08-15.85 2.3-3.68 1.8-6.98 4.53-9.01 8.1s-2.65 8-1.24 11.85c1.27 3.46 4.09 6.23 7.39 7.87s7.05 2.22 10.74 2.15l6.44-8.96z" fill="#0e538c"></path>
  <path d="m338.88 354.25-10.47 14.96-21.24-32.33 7.71-4.88zM338.88 354.25l3.26 14.96 10.75-22.98-4.01-6.98z" fill="#f2f2f2"></path>
  <path d="m341.07 364.31-2.19 6.11 9.08 35.63s-7.72 57.06-8.63 54.08-17.22-56.5-17.22-56.5l10.83-33.06-1.06-6.32 7-10 2.19 10.06z" fill="#ffbe55"></path>
  <path d="M507.8 484.79c1.93-2.7 7.73-9.93 7.73-9.93l14.68 9.93-10.04 6.57-12.37-6.57zM535.27 464.76s-7.52-3.65-12.57-3.97-11.7 6.87-11.7 6.87.21 1.29 2.9 1.29c2.68 0 8.05-2.58 8.05-2.58l13.55 5.68-.23-7.29z" fill="#ffe3ca"></path>
  <path d="M917.24 164.17H800.43c-23.13 0-42.05 18.91-42.05 42.02 0 16.15 9.24 30.23 22.69 37.26l-2.55 11.99s18.87-7.23 21.91-7.23h116.81c23.13 0 42.05-18.91 42.05-42.02 0-23.11-18.92-42.02-42.05-42.02z" fill="#2a94f4"></path>
  <path d="M926.99 175.1H810.18c-23.13 0-42.05 18.91-42.05 42.02 0 16.15 9.24 30.23 22.69 37.26l-2.55 11.99s18.87-7.23 21.91-7.23h116.81c23.13 0 42.05-18.91 42.05-42.02 0-23.11-18.92-42.02-42.05-42.02z" fill="none" stroke="#2a94f4" stroke-miterlimit="10"></path>
  <path d="M283.79 194.34H156.08c-5.31 0-9.66 4.35-9.66 9.66v60.01c0 5.31 4.35 9.66 9.66 9.66h96.4L270.37 287l-7.53-13.33h20.96c5.31 0 9.66-4.35 9.66-9.66V204c0-5.31-4.35-9.66-9.67-9.66z" fill="#cce9ff"></path>
  <path d="M280.3 200.56H152.58c-5.31 0-9.66 4.35-9.66 9.66v60.01c0 5.31 4.35 9.66 9.66 9.66h96.4l17.89 13.33-7.53-13.33h20.96c5.31 0 9.66-4.35 9.66-9.66v-60.01c0-5.31-4.35-9.66-9.66-9.66z" fill="none" stroke="#cce9ff" stroke-miterlimit="10"></path>
  <path d="M125.31 893.62c21.68 0 30.83-17.31 34.43-35.68 4.07-20.72 1.08-42.77 1.08-42.77H89.8s-.11.84-.27 2.34c-1.32 13.04-5.6 76.11 35.78 76.11z" fill="#b6e7ff"></path>
  <path d="M89.8 815.17c0 1.55 15.9 2.81 35.52 2.81 19.61 0 35.52-1.26 35.52-2.81s-15.9-2.81-35.52-2.81c-19.62 0-35.52 1.26-35.52 2.81z" fill="#85ddff"></path>
  <path d="M29.14 618.26s37.46 56.99 59.93 91.77 28.36 42 31.03 53.24c2.68 11.24 5.08 52.7 5.08 52.7h1.66s-.58-35.2-2.6-47.04c-1.96-11.45.14-15.56 1.75-27.6 1.61-12.04 3.75-31.3-8.43-44.68-12.17-13.38-8.96-26.49-13.24-35.31-4.28-8.83-37.46-19.53-41.74-28.63-4.28-9.1-23-14.72-33.44-14.45z" fill="#2a94f4"></path>
  <path d="M29.14 618.26s11.77 13.38 19.8 17.93c8.03 4.55 11.77.53 17.92 11.5 6.15 10.97 6.39 15.79 12.02 21.4 5.63 5.62 12.32 5.89 12.86 18.19.54 12.31-2.67 22.74-2.67 22.74s-57.52-88.82-59.93-91.76z" fill="#41aaf7"></path>
  <path d="M122.22 815.97h-1.68s-.5-11.39-5.03-16.92c-2.92-3.57-15.32-7.62-27.57-12.48-6.75-2.67-13.45-5.59-18.51-8.81-14.25-9.05-27.83-38.21-28.99-43.41-.41-1.81-.59-2.91-.58-3.66v-.02c.03-1.4.72-1.61 1.92-3.02.58-.68 2.31-.45 4.43.2 6.14 1.87 11.33 6.08 14.54 11.64 2.97 5.14 7.72 11.57 13.54 13.13 10.06 2.68 9.22 4.35 12.93 14.58 3.7 10.23 13.05 11.9 24.78 23.96 11.73 12.07 10.22 24.81 10.22 24.81z" fill="#2a94f4"></path>
  <path d="M87.94 786.57c-6.75-2.67-13.45-5.59-18.51-8.81-14.25-9.05-27.83-38.21-28.99-43.41-.41-1.81-.59-2.91-.58-3.66.04.34.7 4.96 8.13 8.03 7.7 3.18 9.21 3.18 10.22 8.04 1.01 4.86 1.85 10.06 5.87 11.06 4.02 1.01 6.54-3.52 9.71 3.85 3.19 7.37 4.71 9.89 7.63 10.89 2.93 1.01 5.15-.5 5.8 5.2.39 3.48.61 6.78.72 8.81z" fill="#41aaf7"></path>
  <path d="M134.54 815.97h1.99s3.89-70.55 9.24-77.1c3.45-4.23 14.85-11.8 29.37-17.56 7.99-3.17 15.94-6.62 21.93-10.43 16.88-10.72 32.96-45.26 34.34-51.42.49-2.14.7-3.44.69-4.34v-.02c-.04-1.66-.86-1.91-2.27-3.57-.68-.81-2.74-.53-5.25.24-7.28 2.22-13.42 7.2-17.22 13.79-3.52 6.09-9.15 13.71-16.04 15.55-11.91 3.18-10.92 5.16-15.32 17.27-4.38 12.11-15.46 14.09-29.35 28.38-13.9 14.29-12.11 89.21-12.11 89.21z" fill="#2a94f4"></path>
  <path d="M175.14 721.31c7.99-3.17 15.94-6.62 21.93-10.43 16.88-10.72 32.96-45.26 34.34-51.42.49-2.14.7-3.44.69-4.34-.05.41-.83 5.87-9.62 9.5-9.12 3.76-10.91 3.76-12.1 9.53-1.19 5.75-2.19 11.91-6.95 13.1-4.76 1.19-7.74-4.17-11.51 4.56-3.78 8.73-5.57 11.71-9.04 12.9-3.47 1.19-6.1-.6-6.87 6.16-.48 4.13-.74 8.04-.87 10.44z" fill="#41aaf7"></path>
  <path d="M125.31 893.62c21.68 0 30.83-17.31 34.43-35.68-21.25-8.06-48.01-20.97-70.21-40.43-1.32 13.04-5.6 76.11 35.78 76.11z" fill="#cce9ff"></path>
  <path d="M956.44 896.27c14.35 0 20.4-11.46 22.79-23.62 2.69-13.71.72-28.31.72-28.31h-47.01s-.07.56-.18 1.55c-.88 8.64-3.71 50.38 23.68 50.38z" fill="#b6e7ff"></path>
  <path d="M932.93 844.35c0 1.03 10.52 1.86 23.51 1.86 12.98 0 23.51-.83 23.51-1.86 0-1.03-10.52-1.86-23.51-1.86-12.98 0-23.51.83-23.51 1.86z" fill="#85ddff"></path>
  <path d="M879.35 688.23s29.68 45.15 47.48 72.71c17.81 27.56 22.47 33.28 24.59 42.18 2.12 8.9 4.03 41.76 4.03 41.76h2.33s1.48-27.77-1.27-36.88c-2.76-9.11-1.7-12.72-.42-22.26 1.27-9.54 2.97-24.8-6.68-35.4-9.64-10.6-7.1-20.98-10.49-27.98-3.39-7-29.68-15.47-33.07-22.68-3.39-7.21-18.23-11.66-26.5-11.45z" fill="#2a94f4"></path>
  <path d="M885.84 688.23s9.33 10.6 15.69 14.2c6.36 3.6 9.33.42 14.2 9.11 4.88 8.69 5.06 12.51 9.53 16.96 4.46 4.45 9.76 4.66 10.19 14.41.42 9.75-2.12 18.02-2.12 18.02s-45.58-70.37-47.49-72.7z" fill="#41aaf7"></path>
  <path d="m965.32 844.35 1.7-.51s-2.95-11.68-.04-18.65c1.87-4.5 13.19-12.36 24.12-20.99 6.02-4.75 11.92-9.74 16.07-14.53 11.68-13.48 16.57-47.11 16.18-52.73-.13-1.96-.28-3.12-.52-3.88l-.01-.02c-.45-1.41-1.22-1.41-2.86-2.47-.79-.52-2.48.25-4.42 1.55-5.65 3.76-9.62 9.59-11.19 16.19-1.45 6.11-4.31 14.06-9.72 17.39-9.36 5.77-8.01 7.2-8.67 18.68-.64 11.47-9.6 16-17.81 31.77-8.22 15.76-2.83 28.2-2.83 28.2z" fill="#2a94f4"></path>
  <path d="M991.1 804.19c6.02-4.75 11.92-9.74 16.07-14.53 11.68-13.48 16.57-47.11 16.18-52.73-.13-1.96-.28-3.12-.52-3.88.06.36.79 5.23-5.79 10.59-6.83 5.55-8.36 6.01-7.9 11.24.46 5.22 1.18 10.74-2.59 12.98-3.77 2.24-7.68-1.58-8.66 6.84-.99 8.43-1.76 11.43-4.42 13.34-2.66 1.9-5.36 1.05-4.3 7.02.65 3.63 1.43 7.04 1.93 9.13z" fill="#41aaf7"></path>
  <path d="M956.44 896.27c14.35 0 20.4-11.46 22.79-23.62-14.06-5.33-31.78-13.88-46.47-26.76-.88 8.64-3.71 50.38 23.68 50.38z" fill="#cce9ff"></path>
</svg>
