<svg xmlns="http://www.w3.org/2000/svg" width="3000" height="3000" fill="none" viewBox="0 0 3000 3000" id="employee-predicts-business-vision">
  <path fill="#FFC5A6" d="M1374.78 1437.19C1368.39 1512.6 1351.93 1587.13 1325.86 1658.26C1318 1679.59 1308.34 1701.8 1289.35 1714.28C1263.28 1731.44 1228.82 1724.59 1198.65 1716.38C1198.47 1716.33 1198.24 1716.27 1198.06 1716.21C1195.31 1734.84 1194.25 1755.47 1192.2 1775.92C1191.38 1784.29 1190.21 1792.91 1185.7 1799.94C1181.66 1806.21 1175.15 1810.54 1168.36 1813.59C1167.94 1813.77 1167.53 1813.94 1167.12 1814.12C1157.57 1818.22 1147.14 1820.27 1136.71 1820.15C1124.76 1820.04 1112.98 1816.99 1101.44 1813.53C1060.78 1801.29 1021.93 1782.95 986.597 1759.33C1009.1 1599.37 955.425 1483.01 968.961 1438.88C975.757 1416.8 987.886 1396.76 999.253 1376.66C1015.37 1348.42 1030.37 1319.47 1049.64 1293.28C1068.98 1267.15 1092.94 1243.59 1122.59 1230.17C1156.69 1214.76 1196.25 1213.71 1232.57 1222.73C1301.25 1239.84 1361.07 1296.09 1373.61 1365.7C1377.77 1389.2 1376.77 1413.34 1374.78 1437.19Z"></path>
  <path fill="#203752" d="M1099.57 1181.95C1099.57 1181.95 983.79 1125.7 922.735 1230.94C861.681 1336.17 896.134 1426.99 923.907 1489.63C951.681 1552.27 987.306 1651.7 987.306 1673.97C987.306 1673.97 1075.9 1630.9 1102.97 1522.97C1102.97 1522.97 1032.72 1498.95 1060.25 1430.63C1087.79 1362.31 1185.24 1405.72 1159.45 1562.05C1159.45 1562.05 1194.08 1463.61 1219.92 1432.62C1245.76 1401.62 1266.74 1397.52 1337.11 1409.36C1407.42 1421.19 1530.59 1380.06 1530.59 1228.07C1530.59 1228.07 1454.94 1246.41 1396.58 1231.47C1311.27 1209.73 1207.79 1085.98 1099.57 1181.95Z"></path>
  <path fill="#FF9F6B" d="M1192.15 1775.91C1191.33 1784.29 1190.15 1792.91 1185.64 1799.94C1181.6 1806.21 1175.09 1810.54 1168.3 1813.59L1109 1668.69C1142.63 1696.75 1198.06 1716.21 1198.06 1716.21C1198.06 1716.21 1194.2 1755.41 1192.15 1775.91Z"></path>
  <path fill="#FFC5A6" d="M2225.16 1657.15C2255.39 1630.43 2283.17 1600.9 2308.01 1569.14C2321.19 1552.32 2333.61 1534.68 2342.17 1515.11C2347.27 1503.4 2350.96 1490.09 2346.8 1478.02C2343.69 1469 2336.66 1461.97 2329.57 1455.58C2317.85 1445.04 2304.79 1435.02 2289.43 1431.44C2262.77 1425.23 2236.11 1439.41 2212.38 1453.12C2201.95 1459.16 2191.29 1465.31 2183.32 1474.39C2175.29 1483.53 2170.37 1495.08 2167.33 1506.85C2157.89 1543 2164.75 1581.38 2174.94 1617.36C2178.34 1629.37 2182.38 1641.79 2191.11 1650.76C2199.84 1659.72 2215.67 1665.52 2225.16 1657.15Z"></path>
  <path fill="#1B81A6" d="M1822.56 1379C1746.04 1408.65 1669.57 1438.3 1593.05 1467.95C1589.59 1469.29 1585.96 1470.7 1583.38 1473.46C1579.57 1477.5 1578.93 1483.47 1578.81 1488.98C1578.46 1508.55 1583.15 1528.12 1592.76 1547.69C1595.51 1553.32 1601.55 1556.72 1607.82 1556.07C1694.65 1547.46 1781.31 1537.26 1867.8 1525.6C1856.43 1476.85 1843.95 1428.28 1822.56 1379Z"></path>
  <path fill="#1B81A6" d="M2483.79 1495.96C2264.65 1525.14 2045.34 1529.42 1830.77 1558.01C1819.11 1559.53 1808.09 1552.44 1804.69 1541.19C1788.17 1486.76 1776.04 1434.32 1773.4 1380.76C1772.99 1372.15 1777.39 1363.13 1785.59 1360.49C1966.06 1302.6 2179.11 1230.59 2443.25 1145.92C2466.04 1259.59 2478.29 1375.43 2483.79 1495.96Z"></path>
  <path fill="#FFC5A6" d="M2135.04 1661.6C2138.32 1628.37 2140.26 1594.27 2131.23 1562.16 2124.44 1537.91 2111.49 1515.29 2108.73 1490.27 2107.03 1474.68 2109.44 1458.98 2111.95 1443.51 2112.89 1437.89 2113.83 1432.09 2116.94 1427.34 2120.04 1422.54 2125.78 1419.02 2131.35 1420.31 2135.04 1421.19 2137.97 1424 2140.43 1426.93 2153.26 1442.22 2157.6 1462.67 2165.69 1480.89 2174.18 1499.94 2187.13 1516.99 2203.24 1530.29 2213.15 1538.43 2224.51 1545.46 2231.13 1556.48 2237.93 1567.67 2238.87 1581.5 2237.58 1594.57 2234.42 1626.85 2217.01 1658.73 2188.36 1673.9 2177.4 1679.7 2164.69 1682.93 2152.62 1680.29 2140.55 1677.65 2129.53 1667.98 2135.04 1661.6ZM1932.72 1650C1944.84 1552.09 2050.55 1487.11 2067.01 1389.79 2067.77 1385.22 2068.3 1380.3 2066.19 1376.14 2064.38 1372.56 2060.86 1370.16 2057.4 1368.11 2015.1 1343.26 1957.68 1351.59 1920.35 1383.4 1883.03 1415.22 1865.68 1467.01 1870.37 1515.82 1875 1564.69 1899.96 1610.22 1932.72 1650Z"></path>
  <path fill="#1B81A6" d="M1660.84 1336.93C1584.32 1366.58 1507.86 1396.23 1431.33 1425.88C1427.88 1427.23 1424.24 1428.63 1421.66 1431.39C1417.86 1435.43 1417.21 1441.41 1417.09 1446.91C1416.74 1466.48 1421.43 1486.05 1431.04 1505.62C1433.79 1511.25 1439.83 1514.65 1446.1 1514C1532.93 1505.39 1619.59 1495.2 1706.08 1483.54C1694.71 1434.79 1682.23 1386.21 1660.84 1336.93Z"></path>
  <path fill="#1B81A6" d="M2322.07 1453.83C2102.92 1483.01 1883.61 1487.29 1669.04 1515.88C1657.38 1517.41 1646.36 1510.32 1642.96 1499.07C1626.44 1444.63 1614.31 1392.19 1611.67 1338.64C1611.26 1330.02 1615.66 1321 1623.86 1318.36C1804.33 1260.47 2017.38 1188.46 2281.52 1103.79C2304.31 1217.52 2316.56 1333.31 2322.07 1453.83Z"></path>
  <path fill="#FFC5A6" d="M1979.83 1503.69C1961.08 1494.49 1941.21 1484.24 1930.96 1466.01C1920.18 1446.85 1922.58 1423.3 1925.28 1401.44C1928.21 1377.54 1931.19 1353.69 1934.12 1329.78C1935 1322.52 1935.76 1314.43 1931.55 1308.4C1925.63 1299.96 1913.09 1299.84 1903.13 1302.54C1875.12 1310.15 1853.5 1332.42 1836.39 1355.86C1813.01 1387.91 1794.79 1426.52 1799.07 1466.01C1801.58 1489.57 1812.07 1512.13 1811.9 1535.8C1811.78 1556.07 1803.93 1575.41 1799.71 1595.27C1795.49 1615.14 1795.67 1637.93 1809.03 1653.16C1823.85 1670.1 1852.74 1671.09 1869.91 1656.5C1876.12 1651.23 1880.8 1644.37 1885.43 1637.63C1916.02 1593.28 1946.55 1548.87 1979.83 1503.69Z"></path>
  <path fill="#31DECD" d="M2289.26 1632.53C2221.64 1613.96 2150.28 1609.21 2083.6 1625.09C2060.16 1736.25 2028.4 1845.7 1988.79 1952.22C1969.28 2004.6 1944.5 2060.21 1895.39 2086.99C1833.58 2120.68 1756.88 2096.48 1693.54 2065.72C1529.42 1986.09 1384.05 1865.39 1208.85 1814.53C1182.6 1806.91 1167.83 1843.71 1141 1839.19C1049.53 1823.96 1047.6 1762.96 874.397 1784.82C828.753 1784.82 754.573 1805.56 714.495 1831.28C646.761 1874.7 618.694 1958.43 598.714 2036.42C574.397 2131.34 555.062 2227.55 542.23 2326.46C541.702 2440.6 532.62 2554.68 511.585 2676.85C671.136 2701.99 832.21 2717.4 993.636 2722.91C1086.86 2726.13 1181.08 2725.95 1272.31 2706.5C1297.97 2558.96 1323.58 2411.48 1351.06 2266.4C1481.96 2291.6 1612.85 2316.85 1743.75 2342.05C1832.58 2359.16 1930.96 2374.74 2008.36 2327.92C2072.41 2289.19 2106.45 2216.54 2134.87 2147.28C2203.42 1980.35 2244.79 1812.77 2289.26 1632.53Z"></path>
  <path fill="#1B81A6" d="M1096.29 1863.92C1109.3 1905.94 1120.08 1948.65 1129.11 1997.4C1105.61 2212.15 1074.5 2426.01 1035.88 2638.53C1035.06 2643.16 1034.18 2648.09 1035.83 2652.54C1036.88 2655.47 1038.87 2657.93 1040.86 2660.33C1056.45 2679.32 1072.1 2698.3 1087.68 2717.34C1103.74 2700.88 1119.79 2684.47 1135.85 2668.01C1140.94 2662.79 1146.22 2657.34 1148.79 2650.49C1150.85 2645.04 1151.02 2639.06 1151.14 2633.2C1156.35 2428.71 1161.57 2224.22 1166.84 2019.73C1167.37 2000.1 1167.84 1980.35 1171.24 1960.96C1175.1 1938.81 1182.78 1917.3 1184.42 1894.86C1186.24 1869.84 1180.61 1845 1174.99 1820.57C1174.46 1818.22 1173.81 1815.76 1171.94 1814.24C1169.83 1812.6 1166.9 1812.71 1164.2 1812.95C1151.02 1814.06 1137.78 1815.12 1124.59 1816.23C1119.61 1816.64 1114.22 1817.28 1110.77 1820.86C1108.48 1823.26 1107.49 1826.6 1106.55 1829.82C1103.44 1840.66 1100.4 1851.44 1096.29 1863.92Z"></path>
  <path fill="#31DECD" d="M1191.33 1782.6C1180.43 1798.36 1166.02 1807.73 1142.7 1812.89C1091.55 1796.66 1033.25 1771.87 990.239 1740.76C980.864 1755.53 973.423 1770.23 967.563 1783.53C1005 1838.79 1049.07 1889.59 1098.46 1934.53C1109.48 1899.55 1124.71 1865.92 1143.75 1834.51C1162.04 1862.05 1180.14 1893.63 1194.61 1937.69C1208.56 1882.73 1210.32 1840.37 1191.33 1782.6Z"></path>
  <path fill="#31DECD" d="M1986.09 1612.21C1912.03 1594.92 1835.91 1586.37 1756.7 1585.96C1730.45 1659.55 1704.25 1733.2 1678 1806.8C1662.95 1849.04 1647.71 1891.76 1623.45 1929.49C1599.2 1967.23 1564.74 2000.1 1522.03 2013.87C1480.54 2027.23 1435.66 2021.54 1392.54 2015.04C1314.25 2003.14 1236.32 1988.85 1158.92 1972.09C1107.24 1960.9 1049.53 1949.53 1004.47 1977.19C990.524 1985.74 978.922 1997.46 968.141 2009.77C940.543 2041.29 917.516 2077.91 908.551 2118.81C899.528 2159.71 906.09 2205.23 932.223 2237.99C965.035 2279.06 1020.7 2292.83 1072.32 2302.91C1237.09 2335.08 1404.72 2355.59 1572.59 2351.89C1629.84 2350.61 1690.43 2345.39 1736.83 2311.87C1767.42 2289.79 1788.86 2257.38 1806.73 2224.22C1844.59 2153.91 1869.2 2077.38 1892.05 2000.92C1929.96 1873.59 1963.71 1745.16 1986.09 1612.21Z"></path>
  <path fill="#1B81A6" d="M801.035 1008.51C768.106 1095.17 736.934 1182.54 707.578 1270.43C691.758 1317.83 676.289 1365.82 671.074 1415.5C590.977 1354.63 526.758 1273.12 484.863 1182.18C567.832 1035.17 663.633 895.367 770.918 764.996C812.988 800.562 855.293 835.895 901.582 875.211C992.637 732.066 1090.9 593.492 1198.12 462.008C1172.23 431.246 1150.78 396.852 1134.61 360.055C1233.4 328.941 1333.07 300.758 1433.5 275.562C1415.45 397.73 1397.05 521.012 1352.99 636.324C1331.89 611.07 1310.86 585.816 1287.25 561.266C1186.93 760.426 1086.56 959.645 986.25 1158.8C926.133 1114.45 866.016 1070.09 801.035 1008.51Z"></path>
  <path fill="#31DECD" d="M2283.99 1106.48C2236.47 1112.4 2252.46 1454.35 2318.85 1456.75 2382.95 1459.04 2359.34 1097.1 2283.99 1106.48ZM2439.2 1146.1C2391.68 1152.02 2407.68 1493.97 2474.07 1496.37 2538.17 1498.72 2514.55 1136.72 2439.2 1146.1Z"></path>
  <path fill="#203752" d="M1888.59 1088.67C2112.33 1088.67 2293.71 907.292 2293.71 683.552C2293.71 459.812 2112.33 278.435 1888.59 278.435C1664.85 278.435 1483.47 459.812 1483.47 683.552C1483.47 907.292 1664.85 1088.67 1888.59 1088.67Z"></path>
  <path fill="#31DECD" d="M1888.59 996.744C2061.56 996.744 2201.77 856.527 2201.77 683.561C2201.77 510.594 2061.56 370.377 1888.59 370.377C1715.62 370.377 1575.41 510.594 1575.41 683.561C1575.41 856.527 1715.62 996.744 1888.59 996.744Z"></path>
  <path fill="#203752" d="M1888.59 903.162C2009.88 903.162 2108.2 804.84 2108.2 683.553C2108.2 562.266 2009.88 463.943 1888.59 463.943C1767.31 463.943 1668.98 562.266 1668.98 683.553C1668.98 804.84 1767.31 903.162 1888.59 903.162Z"></path>
  <path fill="#31DECD" d="M1888.59 807.828C1957.23 807.828 2012.87 752.187 2012.87 683.551C2012.87 614.914 1957.23 559.273 1888.59 559.273C1819.95 559.273 1764.31 614.914 1764.31 683.551C1764.31 752.187 1819.95 807.828 1888.59 807.828Z"></path>
  <path fill="#203752" d="M1888.6 724.632C1911.28 724.632 1929.67 706.242 1929.67 683.558 1929.67 660.873 1911.28 642.483 1888.6 642.483 1865.91 642.483 1847.52 660.873 1847.52 683.558 1847.52 706.242 1865.91 724.632 1888.6 724.632ZM1607.93 1334.53C1612.91 1363.83 1617.89 1393.12 1622.87 1422.48 1625.27 1436.66 1627.68 1450.84 1630.08 1465.02 1631.37 1472.58 1632.66 1480.13 1633.95 1487.69 1634.83 1492.79 1635.59 1497.95 1638.11 1502.52 1644.08 1513.3 1656.51 1512.65 1667.17 1512.3 1681.7 1511.89 1696.23 1511.25 1710.76 1510.49 1740.76 1508.9 1770.76 1506.62 1800.65 1503.69 1808.09 1502.99 1808.2 1491.21 1800.7 1491.97 1773.69 1494.61 1746.62 1496.72 1719.49 1498.24 1705.96 1499 1692.36 1499.65 1678.83 1500.12 1672.27 1500.35 1665.65 1500.82 1659.08 1500.7 1651.23 1500.53 1647.83 1498.06 1646.25 1490.45 1640.8 1464.67 1637.35 1438.3 1632.95 1412.28 1628.38 1385.33 1623.81 1358.38 1619.24 1331.42 1618.01 1324.16 1606.7 1327.15 1607.93 1334.53Z"></path>
  <path fill="#203752" d="M1423.59 1497.65C1426.34 1514.06 1443.34 1520.62 1458.22 1519.98 1477.61 1519.16 1497.3 1514.53 1516.46 1511.6 1557.77 1505.33 1599.08 1499.06 1640.39 1492.79 1647.83 1491.68 1644.84 1480.31 1637.46 1481.42 1601.83 1486.81 1566.21 1492.26 1530.58 1497.65 1513 1500.35 1495.42 1502.99 1477.85 1505.68 1464.78 1507.67 1438.12 1514.06 1434.9 1494.67 1433.73 1487.28 1422.36 1490.27 1423.59 1497.65ZM1786.52 1508.09C1787.1 1524.56 1793.08 1540.02 1803.28 1552.92 1805.27 1555.38 1809.55 1554.91 1811.54 1552.86 1814 1550.4 1813.47 1547.06 1811.48 1544.59 1803.57 1534.63 1798.71 1521.22 1798.24 1508.15 1798.12 1504.99 1795.66 1502.29 1792.44 1502.23 1789.33 1502.29 1786.4 1504.93 1786.52 1508.09Z"></path>
  <path fill="#203752" d="M1582.21 1544.01C1586.72 1560.77 1604.36 1562.76 1619.06 1561.47 1638.98 1559.77 1658.91 1557.54 1678.77 1555.14 1718.09 1550.39 1757.28 1544.53 1796.25 1537.56 1803.69 1536.21 1800.7 1524.91 1793.32 1526.19 1759.51 1532.23 1725.59 1537.45 1691.54 1541.84 1674.55 1544.01 1657.5 1545.94 1640.51 1547.7 1632.07 1548.58 1623.63 1549.52 1615.14 1550.1 1607.23 1550.63 1596.09 1550.51 1593.57 1541.08 1591.58 1533.75 1580.27 1536.74 1582.21 1544.01ZM1961.42 1491.22C2066.54 1481.49 2171.66 1471.76 2276.78 1462.04 2290.02 1460.81 2303.32 1459.99 2316.5 1458.23 2327.34 1456.76 2338.07 1453.54 2345.39 1444.99 2350.25 1439.3 2341.93 1430.98 2337.07 1436.78 2330.45 1444.52 2320.49 1446.22 2310.82 1447.21 2298.57 1448.5 2286.27 1449.5 2273.96 1450.61 2248.89 1452.95 2223.81 1455.24 2198.73 1457.58 2148.1 1462.27 2097.48 1466.96 2046.85 1471.65 2018.38 1474.28 1989.96 1476.92 1961.48 1479.56 1953.98 1480.2 1953.87 1491.92 1961.42 1491.22ZM2209.45 1527.19C2263.88 1522.26 2318.32 1517.34 2372.75 1512.48 2399.94 1510.02 2427.18 1507.67 2454.37 1505.1 2472.94 1503.34 2492.16 1500.29 2503.88 1484.3 2508.34 1478.26 2498.14 1472.46 2493.69 1478.49 2481.73 1494.72 2454.72 1493.32 2436.91 1494.96 2411.66 1497.24 2386.34 1499.53 2361.09 1501.81 2310.52 1506.39 2260.02 1510.96 2209.45 1515.47 2202.01 1516.11 2201.95 1527.89 2209.45 1527.19ZM2208.4 1133.03C2232.54 1129.28 2254.16 1114.63 2278.77 1113.58 2290.08 1113.11 2301.97 1115.45 2309.94 1124.07 2318.44 1133.21 2322.13 1146.8 2326.23 1158.29 2344.04 1208.62 2353.65 1261.82 2354.53 1315.2 2355.06 1345.44 2352.83 1375.67 2347.79 1405.49 2346.56 1412.88 2357.87 1415.98 2359.1 1408.54 2368.65 1351.65 2368.59 1293.52 2358.75 1236.69 2353.83 1208.15 2346.44 1180.08 2336.6 1152.84 2332.26 1140.71 2328.1 1127.52 2319.73 1117.51 2312.4 1108.77 2301.85 1103.97 2290.72 1102.45 2260.37 1098.23 2234.47 1117.15 2205.41 1121.67 2198.03 1122.84 2201.01 1134.2 2208.4 1133.03ZM2356.18 1180.9C2379.26 1172.23 2402.53 1164.26 2426.08 1157.05 2436.86 1153.77 2447.47 1151.19 2457.49 1157.76 2465.4 1162.91 2470.79 1171.41 2475.01 1179.67 2485.2 1199.65 2491.24 1222.5 2496.51 1244.24 2502.25 1267.74 2506.06 1291.64 2507.94 1315.73 2509.99 1342.56 2509.63 1369.51 2507 1396.35 2506.24 1403.85 2518.01 1403.85 2518.72 1396.41 2523.81 1344.55 2520.12 1291.94 2507.82 1241.31 2502.19 1218.28 2495.69 1194.03 2484.62 1172.93 2475.59 1155.71 2460.47 1139.94 2439.5 1141.94 2425.44 1143.28 2411.2 1149.38 2397.84 1153.77 2382.84 1158.75 2367.96 1164.03 2353.13 1169.59 2346.22 1172.17 2349.09 1183.54 2356.18 1180.9Z"></path>
  <path fill="#203752" d="M2413.06 1177.68C2397.89 1276.64 2406.74 1378.42 2439.43 1473.11 2441.89 1480.2 2453.26 1477.27 2450.8 1470.18 2418.81 1377.54 2409.49 1277.7 2424.37 1180.72 2425.49 1173.34 2414.18 1170.24 2413.06 1177.68ZM2257.97 1136.25C2238.28 1231.29 2257.56 1327.91 2277.6 1421.19 2279.18 1428.57 2290.55 1425.58 2288.96 1418.26 2269.39 1327.09 2250.06 1232.28 2269.33 1139.29 2270.8 1131.91 2259.49 1128.86 2257.97 1136.25ZM969.725 1806.86C1004.65 1856.14 1043.73 1902.31 1086.68 1944.79 1089.08 1947.19 1094.41 1947.07 1095.88 1943.5 1110.76 1907.58 1128.1 1872.78 1147.85 1839.32 1144.45 1839.32 1141.05 1839.32 1137.71 1839.32 1156.17 1873.89 1174.69 1908.46 1193.14 1943.09 1195.49 1947.48 1202.75 1946.55 1203.87 1941.68 1212.89 1902.89 1214.18 1863.05 1207.97 1823.73 1206.8 1816.29 1195.43 1819.28 1196.6 1826.66 1202.52 1863.93 1201.11 1901.9 1192.56 1938.63 1196.13 1938.17 1199.71 1937.7 1203.28 1937.23 1184.82 1902.66 1166.31 1868.09 1147.85 1833.46 1145.74 1829.47 1139.88 1829.77 1137.71 1833.46 1117.97 1866.97 1100.62 1901.72 1085.74 1937.64 1088.79 1937.23 1091.89 1936.82 1094.94 1936.35 1052.75 1894.63 1014.26 1849.34 979.921 1800.94 975.585 1794.9 965.39 1800.71 969.725 1806.86Z"></path>
  <path fill="#203752" d="M819.548 1872.02C942.77 1879.11 1051.46 1946.78 1168.18 1979.89C1230.64 1997.64 1295.27 2010 1359.84 2016.92C1392.77 2020.43 1425.93 2022.07 1459.04 2020.79C1489.68 2019.61 1521.44 2016.92 1550.21 2005.73C1602.48 1985.39 1630.13 1934.95 1653.1 1886.84C1656.32 1880.1 1646.19 1874.18 1642.91 1881.04C1623.04 1922.64 1599.72 1968.81 1556.48 1990.26C1529.18 2003.79 1497.59 2007.02 1467.59 2008.66C1435.49 2010.41 1403.2 2009.3 1371.21 2006.31C1306.64 2000.28 1241.89 1987.97 1179.37 1970.86C1121.31 1954.98 1066.05 1931.49 1010.09 1909.57C948.805 1885.55 885.876 1864.16 819.665 1860.3C812.048 1859.83 811.989 1871.55 819.548 1872.02Z"></path>
  <path fill="#203752" d="M1105.08 1917.13C1108.53 1931.43 1112.05 1945.78 1115.51 1960.08 1116.27 1963.12 1119.61 1965.06 1122.66 1964.3 1125.76 1963.48 1127.58 1960.25 1126.87 1957.15 1123.42 1942.85 1119.9 1928.5 1116.44 1914.2 1115.68 1911.15 1112.34 1909.22 1109.3 1909.98 1106.19 1910.8 1104.37 1914.02 1105.08 1917.13ZM1174.74 1918.24C1168.42 1935.59 1164.31 1953.63 1162.32 1971.97 1161.97 1975.14 1165.19 1977.83 1168.12 1977.89 1171.58 1977.89 1173.69 1975.19 1174.04 1972.09 1175.97 1954.75 1180.08 1937.69 1186.05 1921.35 1187.17 1918.36 1184.76 1914.96 1181.89 1914.2 1178.67 1913.2 1175.86 1915.25 1174.74 1918.24ZM813.519 2230.55C975.94 2283.98 1142.29 2328.52 1312.56 2347.68 1397.23 2357.17 1482.66 2360.27 1567.68 2354.65 1608.52 2351.95 1651.41 2349.49 1690.78 2337.42 1725.53 2326.82 1755.59 2305.96 1779.85 2279.18 1830.59 2223.16 1848.69 2148.75 1873.48 2079.32 1876 2072.23 1864.69 2069.24 1862.17 2076.27 1840.84 2135.98 1825.26 2200.66 1786.88 2252.28 1765.84 2280.59 1738.71 2305.25 1706.14 2319.43 1668.4 2335.9 1624.92 2338.48 1584.38 2341.7 1417.91 2354.94 1250.69 2334.26 1088.56 2296.7 996.624 2275.43 906.097 2248.71 816.507 2219.24 809.417 2216.89 806.37 2228.2 813.519 2230.55Z"></path>
  <path fill="#203752" d="M1087.56 2305.2C1077.89 2363.14 1068.17 2421.09 1058.5 2479.04 1053.69 2507.75 1048.89 2536.52 1044.08 2565.23 1041.68 2579.59 1039.28 2593.95 1036.88 2608.36 1034.53 2622.3 1031.14 2636.54 1029.96 2650.66 1028.79 2665.02 1039.81 2674.45 1048.6 2684.3 1059.9 2697.01 1071.21 2709.79 1082.52 2722.5 1087.5 2728.12 1095.76 2719.8 1090.72 2714.18 1081.35 2703.63 1071.97 2693.09 1062.6 2682.54 1054.28 2673.16 1040.16 2662.68 1041.92 2649.02 1045.49 2621.54 1051.06 2594.18 1055.63 2566.87 1064.83 2511.8 1074.03 2456.72 1083.28 2401.64 1088.5 2370.53 1093.71 2339.36 1098.93 2308.24 1100.1 2300.86 1088.79 2297.75 1087.56 2305.2ZM1111.06 2701.7C1121.31 2691.33 1131.62 2680.96 1141.88 2670.58 1150.02 2662.38 1158.11 2655.17 1159.16 2642.93 1160.33 2628.87 1158.69 2614.16 1158.46 2600.04 1158.17 2585.92 1157.99 2571.8 1157.81 2557.67 1157.17 2500.72 1157.52 2443.71 1158.81 2386.76 1158.99 2379.2 1147.27 2379.14 1147.09 2386.7 1145.86 2440.72 1145.51 2494.8 1146.04 2548.83 1146.27 2575.6 1146.74 2602.38 1147.44 2629.16 1147.62 2635.78 1148.85 2643.75 1145.33 2649.67 1141.99 2655.23 1136.02 2659.86 1131.56 2664.37 1121.95 2674.04 1112.4 2683.71 1102.79 2693.38 1097.4 2698.83 1105.72 2707.09 1111.06 2701.7Z"></path>
</svg>
