<svg xmlns="http://www.w3.org/2000/svg" xml:space="preserve" viewBox="0 0 1920 1080" id="teamwork">
  <g fill="#2A94F4">
    <path d="M544.805 950.952c121.607 105.788 547.244 175.972 798.197-66.017s58.865-903.086-382.804-839.756-352.307 244.027-389.995 385.124-147.005 414.861-25.398 520.649z" opacity=".1"></path>
    <ellipse cx="1160.631" cy="1030.164" opacity=".1" rx="146.087" ry="19.081"></ellipse>
    <ellipse cx="747.03" cy="1023.57" opacity=".1" rx="164.097" ry="21.261"></ellipse>
    <ellipse cx="965.652" cy="1065.282" opacity=".1" rx="164.097" ry="14.718"></ellipse>
  </g>
  <path fill="#FCD2B1" d="M1051.645 147.715s-6.479-20.883-5.91-23.619c.349-1.683 4.385-12.039 5.741-15.435.504-1.264 1.015-2.55 1.137-3.91.125-1.391-.163-2.789-.505-4.148-.947-3.772-2.32-7.428-3.688-11.073-.364-.969-.732-1.945-1.277-2.826-.661-1.067-1.562-1.964-2.459-2.844a346.424 346.424 0 0 0-15.832-14.603c-.287-.248-.599-.508-.976-.548-.899-.097-3.961 5.931-4.048 7.324-.358 5.813.904 11.735 3.609 16.939.538 1.036 1.14 2.062 1.396 3.198.679 3.014-1.174 5.906-2.103 8.834-.839 2.646-1.706 5.475-2.063 8.231-.655 5.052 3.76 8.485 4.416 9.415.364.515.474 1.158.583 1.775.714 4.027 2.036 19.091 2.036 19.091"></path>
  <path fill="#0B4870" d="M1136.238 188.06c-5.777 3.946-6.436 13.304-6.745 19.658-.374 7.654.701 15.31 2.22 22.795 1.057 5.209 2.439 10.603 5.961 14.585 1.799 2.033 4.063 3.587 6.305 5.119 1.27.869 2.568 1.751 4.047 2.174 1.48.422 3.197.314 4.388-.66 1.737-1.423 1.766-4.021 1.653-6.263-.737-14.616-1.18-29.494 2.54-43.649"></path>
  <path fill="#FCD2B1" d="M1097.419 988.066s-.124 13.788.851 18.68c.976 4.892 16.746 3.316 18.259.53 1.512-2.785-.373-25.572-.373-25.572"></path>
  <path fill="#0B4870" d="M1121.093 1011.982c.431 5.169.402 14.932.402 14.932l-16.169 3.898-2.057-2.748s-4.518 3.86-9.501 5.179c-3.699.978-11.431 1.727-15.249 1.47-13.358-.894-22.573-5.058-23.031-7.012-1.915-8.165 15.838-7.141 19.45-7.442 10.373-.865 17.362-8.309 19.385-13.611 1.468-3.846.604-4.718 2.808-4.204 0 0 1.966.242 3.446 2.424 2.271 3.349 6.218 5.39 10.232 4.358 2.296-.59 4.559-1.646 6.105-3.495 0 0 3.748 1.082 4.179 6.251z"></path>
  <path fill="#0E538C" d="M1128.294 818.843c-1.533-24.225 18.034-56.645 18.034-56.645s-52.832-29.025-53.627-38.054c0 0-7.233 49.847-9.829 67.436-4.508 30.548 10.734 204.805 10.734 204.805s11.057 3.068 25.742.357c0 0 2.745-67.309 13.751-112.902 5.217-21.62-2.982-59.006-4.805-64.997z"></path>
  <path fill="#0E538C" d="M1132.536 539.552c-19.834 44.261-41.374 187.083-46.538 236.385-2.189 20.906 15.222 45.407 35.497 26.503 24.203-22.565 58.252-125.944 70.418-144.192 12.165-18.248 57.686-34.977 26.597-127.568"></path>
  <path fill="#FCD2B1" d="M1221.596 988.931s1.786 19.44 2.488 24.379c.701 4.939 16.535 4.244 18.201 1.548 1.666-2.697 1.053-25.555 1.053-25.555"></path>
  <path fill="#0B4870" d="M1246.757 1018.956c.349 5.175-.526 13.701-.526 13.701l-18.219 1.224-1.102-2.981s-5.701 3.438-10.343 3.75l-15.378 1.033c-11.256.757-17.744-.247-18.163-2.209-1.745-8.199 11.728-8.726 15.23-8.961 10.054-.676 20.624-6.114 22.653-11.377 1.472-3.819.648-4.705 2.775-4.152 0 0 1.9.278 3.303 2.485 2.154 3.39 5.949 5.504 9.849 4.544 2.23-.548 4.437-1.563 5.958-3.383.001 0 3.616 1.15 3.963 6.326z"></path>
  <path fill="#0E538C" d="M1181.992 815.984c3.358 17.224 48.352 10.79 47.381-4.464-1.381-21.686 13.816-49.714 19.643-152.938.666-11.793 12.482-13.524 17.133-45.595 4.591-32.129-14.437-67.69-14.437-67.69l-69.23-9.909s-26.605 60.031-21.103 119.889 16.634 140.425 20.613 160.707z"></path>
  <path fill="#0E538C" d="M1229.253 807.899s15.739 31.179 17.586 53.716c2.703 32.977-.638 141.51-.638 141.51s-17.027 3.698-26.116 1.018c0 0-39.963-192.564-41.429-213.271-1.466-20.705 50.597 17.027 50.597 17.027z"></path>
  <path fill="#2A94F4" d="M1105.727 330.836c7.825-8.977 32.664-23.772 65.861-22.724 22.872.721 85.162 4.497 92.123 19.798 3.557 7.821 7.378 87.919 2.168 115.537-3.917 20.766-13.938 72.211-13.938 84.627s6.669 17.737 3.557 21.343c-6.97 8.075-54.632 11.466-77.008 11.466-19.917 0-53.816-5.31-55.536-11.691-2.553-9.471 3.886-9.116 4.759-19.045.873-9.927 5.565-75.408-.267-84.925-9.256-15.105-18.449-54.892-19.16-66.276-.711-11.383-10.384-39.134-2.559-48.11z"></path>
  <path fill="#FCD2B1" d="M1164.319 284.322s-.223 27.625-1.337 28.74c-.186.186-.492.412-.874.66-3.522 2.292-5.105 6.628-4.107 10.709 1.676 6.853 4.588 15.654 8.317 14.549 4.164-1.234 24.479-11.226 36.591-17.26 3.228-1.608 4.4-5.263 3.557-8.77a1.413 1.413 0 0 1-.041-.334c0-2.228 5.346-45.671 5.346-45.671"></path>
  <path fill="#FFE3CA" d="M1161.747 182.795c-5.004 3.311-20.486 5.089-22.508 12.405-2.021 7.315-.743 22.962-.924 27.455-.361 8.944.497 18.092 1.034 27.012.699 11.625 2.497 32.748 15.906 38.245 3.852 1.578 5.475 1.987 9.421 1.435 5.247-.735 10.511-1.345 15.757-2.088 8.13-1.152 17.161-2.348 23.969-7.337 9.095-6.665 10.065-22.509 9.548-32.883l-2.962-59.419-49.241-4.825z"></path>
  <path fill="#2A94F4" d="M1160.932 364.475c1.195-23.119-78.475-113.775-77.505-117.71.97-3.934-35.745-119.383-35.745-119.383l-20.865 1.616s6.822 97.627 16.138 130.26c6.558 22.972 57.677 90.644 57.677 90.644s59.106 37.691 60.3 14.573z"></path>
  <path fill="#0B4870" d="m1215.386 517.414 120.165 22.684a5.706 5.706 0 0 1 4.445 7.116l-16.098 83.116a5.706 5.706 0 0 1-6.561 4.097l-120.165-22.683a5.705 5.705 0 0 1-4.444-7.116l16.097-83.116a5.706 5.706 0 0 1 6.561-4.098z"></path>
  <path fill="#F7F7F7" d="m1216.804 523.796 115.052 21.718-15.937 82.531-115.052-21.718z"></path>
  <g fill="none" stroke="#D3D3D3" stroke-linecap="round" stroke-linejoin="round" stroke-miterlimit="10" stroke-width=".528">
    <path d="m1213.748 602.002 12.569-70.256M1224.6 604.106l12.568-70.256M1240.214 607.304l12.568-70.256M1255.827 610.501l12.569-70.255M1271.44 613.699l14.092-70.256M1287.054 616.897l14.092-70.256M1302.668 620.094l14.668-70.255"></path>
  </g>
  <path fill="#FCD2B1" d="M1279.093 577.834s-4.753 9.693-7.298 14.617c-1.66 3.212-14.283 13.961-19.344 22.526-2.442 4.133-4.593 8.801-3.97 13.562.623 4.761 5.097 9.271 9.791 8.264 1.337-.287 2.867-.941 3.947-.103.548.425.789 1.123 1.126 1.729 1.038 1.862 3.275 2.978 5.386 2.687 2.112-.29 3.964-1.967 4.461-4.04 3.227 3.016 8.843 2.954 12.002-.132-1.879-1.55-3.282-3.944-2.897-6.35.37-2.32 2.238-4.053 3.671-5.915a18.346 18.346 0 0 0 3.767-11.579c-.079-2.95-.874-5.833-1.199-8.766-.667-6.018.717-12.244 3.869-17.413"></path>
  <path fill="#2A94F4" d="M1242.896 383.681c3.632 12.946 58.942 98.087 58.942 98.087l-29.609 107.922 16.88 10.564s52.644-87.474 52.807-112.174c.162-24.701-38.511-115.258-66.783-152.285-9-11.786-27.038-17.735-27.038-17.735"></path>
  <path fill="#0B4870" d="M1216.462 235.738c-4.122-.882-7.475-2.143-8.633 1.91-.615 2.149-.539 4.812-2.375 6.087-1.83 1.269-4.529.139-5.706-1.751-1.177-1.89-1.25-4.24-1.289-6.466l-.253-14.778c-.083-4.824-.32-10.076-3.454-13.744-1.583-1.852-3.765-3.1-6.019-4.027-7.343-3.024-15.589-2.945-23.476-2.02-7.887.925-15.707 2.647-23.647 2.754-3.337.044-6.742-.213-9.834-1.467-4.994-2.025-8.73-6.567-10.473-11.667-1.743-5.1-1.638-10.699-.465-15.959a25.536 25.536 0 0 0 3.875 4.315 19.734 19.734 0 0 1 1.949-7.655c6.108 11.291 55.319-9.374 68.867-7.973 9.391.97 16.951 1.137 21.073 14.48.521.785 1.438 1.193 2.296 1.582 9.447 4.274 15.258 11.341 20.135 23.072 5.966 14.352 2.647 33.115-1.755 48.02-1.106 3.746-1.568 6.299-3.78 9.519-2.212 3.219-6.995 6.018-10.869 6.522-3.873.505-10.949 3.185-12.241-.502-.924-2.638 3.188-9.244 4.054-11.9"></path>
  <path fill="#FFE3CA" d="M1207.815 254.005s.219 2.664 2.4 4.098c1.913 1.258 4.577.107 6.26-1.124 4.796-3.507 6.774-9.959 6.004-15.694-.908-6.759-6.426-11.999-11.707-8.423-3.09 2.093-3.944 6.661-2.74 10.193"></path>
  <g fill="#0B4870">
    <path d="m1195.76 579.952 10.401 2.463 7.509-38.886-10.429-2.204z"></path>
    <path d="m1188.825 567.987 11.917 2.252 3.515-18.597-11.917-2.252c-5.135-.971-10.085 2.405-11.056 7.541a9.462 9.462 0 0 0 7.541 11.056zm.891-4.06a5.31 5.31 0 1 1 1.97-10.434 5.31 5.31 0 0 1-1.97 10.434z"></path>
  </g>
  <path fill="#FCD2B1" d="M980.616 86.767c.883-7.426-16.212-12.451-17.927-6.312-.184.658-1.663 2.466-2.064 5.228-.342 2.355-1.372 5.1-1.671 7.469-.271 2.152.243 12.223-4.782 13.299-7.701 1.65-2.82-11.749-8.25-14.755-1.704-.943-3.514 9.445-3.643 15.321-.128 5.874-.16 8.818.392 12.277.481 3.461 2.395 8.356 2.126 10.452-.432 3.374-4.373 10.305-4.373 10.305l19.454 4.428s4.598-10.692 6.948-13.179c5.907-5.892 9.604-12.655 11.778-20.835 1.362-5.124 1.828-10.473 2.22-15.745.001-.001-.299-7.187-.208-7.953z"></path>
  <path fill="#FCD2B1" d="M797.697 249.384s61.693-.545 95.185-38.082c26.722-37.44 52.535-78.861 54.462-82.705 5.258 2.01 16.558 7.18 16.558 7.18s-35.3 78.984-49.05 97.024c-13.751 18.039-40.8 47.585-97.972 62.252-27.387-31.442-19.183-45.669-19.183-45.669zM837.902 985.838s3.549 8.097 3.371 13.533c-.179 5.435-17.422 6.547-19.545 3.82-2.122-2.727-4.151-27.573-4.151-27.573"></path>
  <path fill="#0B4870" d="M817.364 1008.159c.233 5.65 2.184 14.788 2.184 14.788l19.89-.819.843-3.36s6.585 3.055 11.652 2.846l16.789-.691c12.29-.506 19.203-2.359 19.425-4.534.926-9.092-13.739-8.076-17.561-7.919-10.978.452-23.074-4.198-25.893-9.663-2.047-3.966-1.257-5.024-3.497-4.173 0 0-2.027.524-3.288 3.082-1.935 3.928-5.799 6.665-10.139 6.085-2.481-.332-4.992-1.171-6.855-2.965-.001 0-3.782 1.673-3.55 7.323z"></path>
  <path fill="#FCD2B1" d="M643.613 975.047s-3.08 14.713-5.26 19.696c-2.178 4.983-18.608-.371-19.569-3.69-.963-3.319 6.356-27.149 6.356-27.149"></path>
  <path fill="#0B4870" d="M612.89 994.052c-1.876 5.334-4.558 15.632-4.558 15.632l15.447 8.37 2.866-2.354s3.547 5.259 8.274 7.961c3.51 2.007 11.206 4.834 15.18 5.571 13.904 2.578 24.481.618 25.492-1.32 4.228-8.102-14.206-11.701-17.816-12.97-10.364-3.646-15.441-13.335-16.037-19.456-.432-4.441.693-5.132-1.703-5.172 0 0-2.077-.263-4.196 1.647-3.252 2.931-7.856 4.042-11.672 1.896-2.182-1.227-4.204-2.936-5.27-5.293.002 0-4.131.153-6.007 5.488z"></path>
  <path fill="#FFBE55" d="M697.532 584.223s-29.691-63.608 15.518-112.537c0 0 40.968 16.351 73.269 17.198 25.435.667 38.207-2.491 38.207-2.491s7.649 46.868 7.557 120.85l-134.551-23.02zM815.923 992.997c.818.025 1.634-.008 2.391-.04 16.782-.516 26.254-2.889 26.254-2.889l-.199-4.835c-3.983-74.051.001-195.516.173-233.856.006-2.684-.153-5.127-.534-7.329-4.066-27.897-32.864-23.036-43.977 3.211-2.607 6.117-4.606 12.85-6.058 20.086-1.8 8.71-2.87 18.147-3.334 28.144-3.019 64.188 18.367 149.95 25.284 197.508z"></path>
  <path fill="#FFBE55" d="M749.941 611.977c.147.752.356 1.561.564 2.369 7.795 33.461 32.343 123.761 43.463 152.942l.003.058c1.627 4.076 6.721 7.366 13.14 8.794 14.725 3.362 36.228-2.95 36.895-32.091.1-3.214-.101-6.706-.548-10.48-2.893-23.511-13.445-153.654-15.011-166.191-1.508-12.541-4.535-30.795-11.271-32.851-33.615-10.11-77.856 30.628-67.235 77.45zM689.483 749.919c21.569-22.031 53.19-13.325 39.961 20.031-14.149 35.665-58.349 134.886-81.627 205.273l-1.618 4.582s-10.575-1.382-27.719-7.734c10.583-45.503 16.435-123.413 40.056-178.509 7.595-17.713 19.768-32.224 30.947-43.643z"></path>
  <path fill="#FFBE55" d="M807.34 537.341c2.212-52.286-61.31-15.007-91.75 3.482-12.813 7.78-17.015 22.468-18.212 36.179-1.207 13.712-12.255 154.821-14.579 180.579-5.243 58.068 43.904 24.409 48.013 8.209 10.363-40.898 75.323-199.958 76.528-228.449z"></path>
  <path fill="#FFE3CA" d="M798.69 207.628c.134 3.937.285 19.329-7.891 23.004-8.178 3.732-13.423 5.298-13.187 6.561.092.573.9 3.282 1.767 5.937 1.88 5.942 4.73 7.418 4.73 7.418l1.183 19.705-14.694 14.652-4.799 4.774-7.212-6.602-23.512-21.415s9.689-11.937 2.999-24.73c-.957-1.803-11.671-13.668-20.216-25.62-4.973-7.029-9.207-14.029-10.325-19.03-3.066-13.68-5.648-28.081 2.203-36.671 7.794-8.591 61.63-43.909 72.407-2.468.001.001 16.412 50.548 16.547 54.485z"></path>
  <path fill="#0B4870" d="M735.006 195.672s12.931 4.667 11.602-12.882c-.072-.959.613-1.817 1.627-2.118 3.785-1.119 12.133-5.544 7.882-22.487-.355-1.414.68-2.805 2.272-3.021 5.491-.744 16.832-2.209 19.35-1.983 0 0 1.245-.123 3.109.187.607.101 1.133.444 1.409.94.876 1.569 5.89 17.562 5.89 17.562s5.977-4.506 5.337-7.546c-.64-3.04-3.458-9.487-3.135-11.105.323-1.619 4.921-3.523 4.955-7.164.075-8.233-3.138-39.748-28.135-20.371-3.269 2.534-6.17 5.582-9.067 6.647-3.78 1.389-8.051-1.29-16.279-.71-11.496.809-60.901 12.364-45.083 56.299 15.816 43.935 41.846 50.203 41.846 50.203s-8.535-36.864-3.58-42.451z"></path>
  <path fill="#FFE3CA" d="M735.006 195.672s-2.446-7.552-8.762-5.376c-8.479 2.922-7.715 24.216 10.753 21.411 0 .001-2.471-8.705-1.991-16.035z"></path>
  <path fill="#2A94F4" d="M852.772 530.679s-93.275 16.652-177.243 1.068c4.072-25.942 20.001-99.245 21.079-128.835l.116-3.016c.667-18.893 1.013-32.385 1.433-32.938.843-1.164-2.146-61.454 2.805-85.084.907-4.353 2.109-7.441 3.638-8.693 9.83-8.171 21.384-16.732 34.279-23.132 0 0 30.046 32.322 45.377-3.447 16.869-1.519 25.457 1.887 30.337 18.771 27.006 93.804 38.179 265.306 38.179 265.306z"></path>
  <path fill="#2A94F4" d="M796.843 246.826s27.941.475 56.443-12.158c15.904 18.701 25.519 52.785 25.519 52.785s-38.451 24.439-66.558 26.789c-6.029-40.967-15.404-67.416-15.404-67.416z"></path>
  <path fill="#0B4870" d="m846.385 306.661 3.334 6.601-6.458-3.604-50.043-52.157 3.124-2.998z"></path>
  <path fill="#FCD2B1" d="M686.145 366.754s12.931 44.614 46.56 65.619c9.796 6.119 22.091 2.698 29.79-5.914 23.021-25.747 46.036-83.748 53.399-105.648-13.497-7.165-17.811-6.049-17.811-6.049s-32.65 45.328-51.382 75.66l-13.991-24.399"></path>
  <path fill="#FCD2B1" d="M797.122 316.453s6.003-9.7 6.284-17.049c.282-7.349-3.201-20.053 3.939-26.665 2.657-2.461 11.955-6.229 22.424-4.497 15.572 2.577 3.258 29.58 2.549 35.713-1.065 9.219-13.917 13.119-16.712 17.714-1.989 3.267-18.484-5.216-18.484-5.216z"></path>
  <path fill="#2A94F4" d="M712.3 267.016s-34.653 22.7-36.134 61.345c-1.145 29.881 18.612 73.48 18.612 73.48s34.285 3.781 52.28-24.24c-5.33-13.612-9.994-25.702-20.235-41.77"></path>
  <path fill="#FFBE55" d="m942.211 30.21 10.883 115.102a5.394 5.394 0 0 0 6.312 4.804l79.464-14.09a5.394 5.394 0 0 0 4.429-5.819l-10.883-115.102a5.395 5.395 0 0 0-6.312-4.804L946.64 24.39a5.394 5.394 0 0 0-4.429 5.82z"></path>
  <path fill="#F7F7F7" d="m948.094 32.101 10.421 110.204 78.9-13.991-10.42-110.203z"></path>
  <g fill="none" stroke="#D3D3D3" stroke-linecap="round" stroke-linejoin="round" stroke-miterlimit="10" stroke-width=".528">
    <path d="m1021.501 28.291-67.05 11.889M1022.536 38.691 955.487 50.58M998.527 55.5l-41.9 7.43M998.427 64.766l-41.901 7.43M998.325 74.031l-41.901 7.43M1028.154 115.228l-41.901 7.43"></path>
  </g>
  <path fill="#FCD2B1" d="M995.005 488.686c5.019-2.364 8.748-6.739 12.316-10.986l10.56-12.573c1.389-1.653 2.843-3.461 3-5.614-5.901-.48-9.703 7.186-15.606 7.64A123.645 123.645 0 0 1 1017 439.298c1.227-2.137 2.561-4.63 1.691-6.935-6.379 2.436-11.75 6.972-16.397 11.974a87.386 87.386 0 0 0-8.885 11.303c-7.789 11.788-12.615 25.317-15.9 39.059M969.609 589.399l-63.264-53.375s-29.442 39.932-18.351 78.456c5.454 18.944 12.301 28.337 15.274 37.326 2.777 8.397 21.819 127.265 20.398 135.956-1.421 8.691-11.645 33.007-15.547 58.579-4.693 30.755-3.896 130.962-7.536 157.531-3.639 26.569 20.896 31.064 22.246 22.075 11.532-76.827 41.991-196.549 46.253-234.958 4.261-38.411 2.531-108.745.527-201.59z"></path>
  <path fill="#FCD2B1" d="M927.089 1001.273s-5.89 27.876-4.305 31.429c1.585 3.554 7.284 13.88 13.12 17.612 6.125 3.917 19.688 8.573 20.774 10.271 1.085 1.699-2.229-.397-4.164 1.122-4.996 3.926-14.494 4.02-20.166 3.084-18.39-3.036-16.082-4.779-26.796-6.081-1.85-.225-5.277 2.51-10.393-.108-5.118-2.618-7.603-7.349-7.163-11.801.758-7.679 5.071-14.007 8.141-19.687 3.07-5.679 5.232-31.667 5.232-31.667"></path>
  <path fill="#0B4870" d="M957.766 1061.009c.1-2.089-7.882-5.249-11.448-6.89-3.567-1.642-9.224-3.09-7.231-2.012 1.992 1.077-1.69 5.262-5.014 4.895-48.677-5.374-40.042-23.566-40.458-25.38-1.792 1.139-5.961 10.146-6.806 12.979-.763 2.561-1.199 7.151-1.405 9.909-.871 11.666 71.487 24.846 72.362 6.499z"></path>
  <path fill="#FCD2B1" d="M1055.994 1066.462c-1.36-1.502-16.014-3.886-22.888-6.757-6.549-2.736-14.483-11.535-16.026-15.267s-1.19-22.648-.992-30.589c1.371-54.706 11.479-188.39 12.943-220.405 2.544-55.646-4.68-113.082-26.089-202.412l-79.723-61.182s-22.326 41.506-14.852 81.191c4.336 23.024 23.435 26.566 26.663 35.514 3.229 8.947 51.462 153.225 51.462 153.225s-9.384 31.189-9.929 65.362c-.466 29.169 12.763 117.162 15.217 150.685.289 6.551 1.416 22.232-.513 27.223-2.366 6.118-8.394 13.302-8.091 21.018.175 4.473.657 3.393 6.307 5.145 5.649 1.752 11.55 3.838 13.49 3.758 11.24-.466 14.439-.33 33.843-.336 5.984-.002 14.574 4.283 19.176-.416 1.783-1.819 1.361-4.255.002-5.757z"></path>
  <path fill="#0B4870" d="M1057.663 1073.311c.611-2.635.92-5.974-.486-6.608-1.95-.88-8.874-3.901-12.787-4.94-3.913-1.04-9.953-1.546-7.745-.807 2.208.739-.991 5.66-4.482 5.66-43.797 0-42.681-16.751-43.367-18.477-1.688 1.419-6.682 11.006-7.154 13.945-.426 2.656-.479 7.3-.05 10.027.765 4.864 74.246 9.075 76.071 1.2z"></path>
  <path fill="#0E538C" d="M908.012 529.309c-5.41 5.942-24.692 38.071-24.898 64.223-.204 26.151 9.099 42.921 9.934 48.38 6.116 39.949 12.029 88.129 12.029 90.744 0 2.615 22.677 17.741 53.174 15.821 56.348-3.547 78.257-18.306 78.257-18.306s-2.668-96.77-11.355-144.486c-4.354-23.914-23.309-62.398-23.309-62.398"></path>
  <path fill="#FFBE9D" d="M856.602 424.818s9.075 45.092 11.456 53.118c2.382 8.026 14.156 58.975 25.315 58.088 11.16-.887 72.279-51.913 72.279-51.913l-8.656-17.312-53.8 25.647s-4.861-58.243-9.123-72.115"></path>
  <path fill="#FFBE55" d="M893.048 362.318s-17.84 1.901-26.886 8.822c-23.067 17.649-5.216 81.712-5.216 81.712s-1.137 3.42 14.348 2.551c15.486-.869 27.902-5.275 27.902-5.275l-4.475-52.493"></path>
  <path fill="#FFE3CA" d="M978.313 244.12c10.749 13.939 8.621 33.541 5.97 50.942l-4.021 26.395c-.637 4.18-1.485 8.747-4.741 11.444-3.285 2.719-7.978 2.673-12.239 2.49l.13 21.844a922.283 922.283 0 0 1-37.378.149 36.004 36.004 0 0 0-3.232-14.831c-6.095-.119-10.167-6.231-12.553-11.84-2.752-6.47-4.756-13.228-6.692-19.987-2.569-8.969-5.047-18.079-5.282-27.406-.235-9.327 1.984-19.022 7.907-26.23 4.039-4.915 9.545-8.402 15.186-11.346 7.727-4.032 17.008-7.215 24.977-3.684"></path>
  <path fill="#0B4870" d="M965.421 310.518c-1.472-7.321-1.368-11.45 1.029-16.325.794-1.616 1.843-3.139 3.274-4.144 1.937-1.359 4.512-1.626 6.658-.69 1.401.611 2.554 1.75 3.346 3.119 2.54-9.833 3.073-20.312 2.339-30.523-1.163-16.194-10.925-28.712-25.178-34.566-26.39-10.841-64.303-.131-75.021 25.773-8.095 19.565-3.991 47.803 11.505 64.204 13.719 14.52 33.453 16.653 51.664 13.662 9.318-1.53 23.7-.613 28.522-13.285.372-.979-.465-1.953-1.455-1.877-3.782.29-6.411-3.994-6.683-5.348z"></path>
  <path fill="#0B4870" d="M967.447 276.073c.98 1.537.75 3.603 1.67 5.176 1.547 2.642 3.603 3.597 6.379 4.885 4.479 2.076 3.43 8.597 3.302 11.513 3.378-2.246 3.927-8.361 4.743-11.468.917-3.488 1.502-7.067 2.518-10.527.989-3.366 2.7-6.538 3.017-10.079 1.094-12.236-6.583-26.618-15.861-33.486-6.753-5-17.062-4.793-24.693.292-3.213 2.142-5.629 5.377-7.051 8.966-.61 1.542-1.032 3.337-.274 4.811M1023.507 345.998l-25.664 112.731a5.395 5.395 0 0 0 4.493 6.538l79.884 11.471a5.395 5.395 0 0 0 6.027-4.142l25.664-112.731a5.394 5.394 0 0 0-4.493-6.537l-79.884-11.471a5.394 5.394 0 0 0-6.027 4.141z"></path>
  <path fill="#F7F7F7" d="m1028.504 349.635-24.572 107.934 79.318 11.389 24.572-107.933z"></path>
  <g fill="none" stroke="#D3D3D3" stroke-linecap="round" stroke-linejoin="round" stroke-miterlimit="10" stroke-width=".528">
    <path d="m1099.42 368.976-67.405-9.679M1097.15 379.178l-67.404-9.679M1069.088 387.635l-42.122-6.049M1066.094 396.404l-42.122-6.049M1063.1 405.173l-42.122-6.049M1078.547 453.632l-42.123-6.048"></path>
  </g>
  <path fill="#FFE3CA" d="M992.062 435.06s36.508 88.228 52.348 88.228c11.522 0 39.775-81.445 39.775-81.445l-17.851-8.45-19.907 34.109-20.157-63.618"></path>
  <path fill="#FFE3CA" d="M1062.79 439.462s5.919-9.318 5.485-15.927c-.165-2.521-1.662-14.515-.411-16.873 1.251-2.358 4.252-10.075 5.967-11.576 1.715-1.5 8.057-3.913 9.608-2.841 1.551 1.072 3.74-2.224 6.052-3.43 14.971-7.805 25.431 23.931 9.62 36.508-2.852 2.269-5.257 7.239-9.957 10.083-2.32 1.404-3.591 3.856-5.807 8.018"></path>
  <path fill="#FFBE55" d="M1010.437 518.831c-1.7-2.514-5.623-5.52-7.03-8.286-3.377-6.638-6.33-34.588-5.168-41.729 1.245-7.654 8.018-11.771 11.075-28.807 3.938-21.945-5.061-39-10.091-46.306-7.11-10.331-2.895-10.271-5.327-22.927-.439-2.28-.953-4.713-2.511-6.302-1.537-1.568-12.136-6.412-14.218-6.733-19.765-3.062-31.38-.672-51.36.203-9.884.432-19.753 1.586-29.458 3.727-10.74 2.369-20.096 5.217-22.305 19.792-3.416 22.542-.544 45.331 6.309 66.711 4.543 14.171 31.663 63.196 24.943 72.684-1.536 2.169-5.38 6.287-5.845 8.992-1.701 9.909 20.686 13.393 30.268 14.18 14.598 1.199 31.349.394 45.982-.289 11.086-.518 35.335-4.388 37.058-18.087.338-2.69-.992-4.858-2.322-6.823z"></path>
  <path fill="#FFBE55" d="M958.484 356.38c9.507.494 37.187-4.362 52.568 11.726 12.886 13.479 20.27 48.814 25.456 63.145-12.908 13.159-25.345 23.771-44.905 19.499-.737-.549-10.442-31.091-17.507-33.808"></path>
  <path fill="#0B4870" d="M972.104 315.866s32.785 41.64 14.327 88.018c-22.581 56.735-24.589 59.742 0 93.185 24.589 33.443 2.774 74.501-32.516 85.144s-125.914 5.51-120.435-73.941c2.241-32.489 24.087-37.531 15.124-70.02s-10.899-52.655 5.754-87.385-.721-130.489 88.349-127.142c0-.001-16.272 102.513 29.397 92.141z"></path>
</svg>
